<svg width="1024" height="1024" viewBox="0 0 1024 1024" fill="none" xmlns="http://www.w3.org/2000/svg">
<path fill-rule="evenodd" clip-rule="evenodd" d="M402.67 7.49875C407.135 6.95454 411.536 6.89425 416.021 7.13284C432.502 8.78946 449.706 15.0293 460.432 28.2749C467.118 36.5328 470.394 46.782 469.237 57.3868C469.149 58.1549 469.043 58.9203 468.918 59.6831C468.794 60.4452 468.65 61.2043 468.487 61.9604C468.324 62.7157 468.143 63.4666 467.943 64.213C467.744 64.9594 467.526 65.7005 467.289 66.4364C467.053 67.1724 466.798 67.9019 466.526 68.6252C466.253 69.3484 465.962 70.0641 465.654 70.7724C465.346 71.4815 465.02 72.1823 464.677 72.8749C464.335 73.5675 463.975 74.2511 463.598 74.9257C463.222 75.6012 462.829 76.2665 462.419 76.9217C462.01 77.5769 461.584 78.2217 461.143 78.856C460.701 79.4903 460.244 80.1134 459.772 80.7253C459.299 81.3365 458.812 81.9361 458.31 82.5241C457.808 83.1113 457.291 83.6859 456.761 84.2477C456.23 84.8096 455.687 85.3579 455.129 85.8929C454.571 86.4286 454.001 86.9497 453.418 87.4563C452.834 87.9628 452.239 88.4548 451.63 88.9322L447.209 92.4098L448.1 92.5252C452.062 93.0259 456.047 93.1899 460.032 93.3539C464.181 93.5247 468.332 93.6955 472.46 94.2466C501.692 98.1466 532.326 109.506 554.588 129.202C558.59 132.743 562.134 136.897 565.609 140.972C569.056 145.015 572.437 148.978 576.132 152.187C578.245 152.61 580.437 153.016 582.677 153.43C598.933 156.437 617.708 159.91 627.19 174.206C631.404 180.559 632.971 187.956 631.169 195.41C629.749 201.28 626.443 206.1 623.118 210.947C621.86 212.781 620.599 214.619 619.437 216.519C607.618 235.844 611.419 258.934 622.325 277.555C629.348 289.546 638.74 300.079 648.051 310.52C651.341 314.21 654.62 317.888 657.782 321.615C689.314 358.785 716.981 399.28 726.059 448.154C727.197 454.28 727.726 460.366 728.26 466.51C728.395 468.065 728.53 469.625 728.676 471.189C738.325 469.914 745.496 466.062 751.485 458.358C756.871 451.429 759.876 443.128 762.834 434.956L763.067 434.314C754.627 419.235 747.655 402.637 752.518 385.105C752.851 383.948 753.224 382.803 753.636 381.672C754.049 380.541 754.5 379.426 754.989 378.326C755.478 377.226 756.005 376.144 756.569 375.08C757.133 374.017 757.734 372.975 758.37 371.953C759.007 370.93 759.678 369.932 760.383 368.956C761.088 367.98 761.826 367.03 762.597 366.105C763.369 365.18 764.171 364.283 765.004 363.414C765.837 362.545 766.699 361.706 767.59 360.896C767.522 341.472 771.078 327.077 784.63 312.496C785.309 311.767 785.977 311.071 786.629 310.394C790.451 306.421 793.677 303.067 794.747 296.986C795.814 290.925 795.065 283.451 794.294 275.754C792.943 262.252 791.522 248.061 799.705 239.596C803.531 235.638 809.114 233.858 814.527 233.827C823.479 233.777 831.999 237.833 838.135 244.234C847.789 254.305 851.973 266.974 851.582 280.776C851.294 290.926 849.151 301.617 845.833 311.208C856.778 316.163 872.681 320.692 890.152 325.669C933.134 337.912 985.609 352.86 997.116 383.481C998.587 387.394 998.853 391.28 999.119 395.174C999.313 398.001 999.507 400.833 1000.16 403.683C1000.54 405.313 1001.22 406.843 1001.91 408.372C1002.84 410.43 1003.76 412.49 1003.93 414.799C1004.22 418.804 1003.64 422.77 1001.86 426.394C998.826 432.581 992.84 436.736 986.407 438.808C982.395 440.1 978.192 440.58 974.003 440.876C968.746 449.266 961.961 453.228 952.492 455.39C935.252 459.327 917.567 455.824 900.319 452.408C896.482 451.648 892.667 450.893 888.883 450.224C875.378 447.837 861.562 445.68 847.845 445.152C841.385 454.183 835.45 460.761 823.898 462.666C819.473 463.396 814.915 463.22 810.425 463.046C809.715 463.019 809.007 462.992 808.302 462.968C807.244 464.994 806.227 467.036 805.212 469.077C802.79 473.945 800.373 478.803 797.405 483.395C785.241 502.221 765.84 515.794 744.608 522.545C738.413 524.501 732.088 525.845 725.633 526.578L725.622 526.625C722.856 538.431 720.108 550.155 715.85 561.53C715.361 562.804 714.859 564.073 714.345 565.336C713.83 566.599 713.302 567.857 712.762 569.11C712.222 570.363 711.669 571.611 711.104 572.852C710.538 574.094 709.96 575.33 709.37 576.561C708.78 577.791 708.177 579.014 707.561 580.232C706.946 581.45 706.319 582.662 705.678 583.867C705.039 585.072 704.387 586.27 703.723 587.462C703.058 588.654 702.383 589.839 701.695 591.017C701.007 592.195 700.307 593.366 699.595 594.53C698.883 595.694 698.16 596.851 697.424 598.001C696.689 599.15 695.942 600.292 695.184 601.426C694.426 602.561 693.656 603.687 692.875 604.806C692.094 605.924 691.302 607.035 690.498 608.138C689.695 609.24 688.88 610.335 688.054 611.42C687.229 612.507 686.392 613.584 685.544 614.653C684.697 615.723 683.838 616.783 682.968 617.835C682.1 618.887 681.22 619.93 680.33 620.964C679.44 621.998 678.539 623.023 677.628 624.038C676.718 625.054 675.796 626.061 674.865 627.057C673.933 628.055 672.992 629.042 672.041 630.02C671.089 630.998 670.128 631.967 669.157 632.925C668.186 633.884 667.206 634.832 666.215 635.771C665.225 636.71 664.226 637.639 663.217 638.557C662.208 639.475 661.19 640.383 660.162 641.281C659.135 642.179 658.099 643.067 657.053 643.944C656.008 644.82 654.954 645.686 653.891 646.542C652.828 647.397 651.757 648.242 650.677 649.076C649.597 649.91 648.509 650.732 647.412 651.545C646.315 652.356 645.211 653.156 644.098 653.946C642.985 654.736 641.864 655.514 640.736 656.281C639.607 657.047 638.471 657.802 637.327 658.546C636.183 659.29 635.032 660.022 633.873 660.742C629.344 663.524 624.788 666.259 620.205 668.949C621.764 681.924 620.863 693.238 612.491 703.77C598.02 721.974 568.624 729.868 546.472 735.816C545.7 736.024 544.936 736.229 544.182 736.432C547.191 744.025 550.394 751.548 553.598 759.071C558.191 769.858 562.786 780.647 566.807 791.648C571.044 803.239 574.434 814.978 577.834 826.752C579.262 831.699 580.692 836.651 582.187 841.602C592.228 843.562 602.368 847.683 608.303 856.505C612.318 862.473 612.903 868.603 613.171 875.533C614.068 875.468 614.981 875.391 615.906 875.314C623.799 874.656 632.537 873.926 638.952 879.208C642.593 882.205 644.139 885.942 645.882 890.153L645.939 890.292C650.193 891.073 654.209 892.427 658.204 893.773C661.887 895.015 665.553 896.251 669.372 897.027C672.07 897.575 674.8 897.972 677.531 898.37C680.059 898.739 682.588 899.107 685.092 899.595C712.837 904.999 738.353 914.055 755.19 938.196C761.944 947.88 767.598 961.654 765.538 973.666C764.247 981.199 759.485 986.825 753.325 991.004C716.408 1016.05 638.492 1006 596.899 997.699C575.36 993.404 525.269 982.229 512.81 963.565C510.753 960.482 509.588 956.737 509.16 953.073C508.3 945.712 510.259 917.11 511.924 909.853C513.157 904.474 515.416 899.709 517.712 894.864C518.498 893.206 519.288 891.539 520.042 889.836C517.88 880.217 517.079 871.714 522.465 862.857C525.919 857.177 531.097 853.19 536.577 849.596C531.622 827.865 524.63 807.488 516.897 786.634C511.499 772.081 506.018 757.583 499.207 743.61C471.277 746.638 442.051 748.432 413.97 746.633L413.505 746.622C407.128 746.474 400.643 746.325 394.336 745.373C385.376 768.792 376.194 792.123 366.79 815.367C365.876 817.693 364.947 820.025 364.015 822.362C359.996 832.45 355.933 842.648 352.809 852.976C361.058 859.301 368.135 865.065 369.417 876.184C369.894 880.319 369.46 884.315 368.982 888.428C372.27 894.464 375.45 900.4 377.697 906.925C381.245 917.23 387.187 948.144 384.233 958.369C381.257 968.667 371.266 975.221 362.292 979.934C315.642 1004.43 213.642 1026.98 162.419 1010.97C153.314 1008.13 142.37 1003.46 137.919 994.405C132.64 983.666 135.869 971.111 139.717 960.465C146.589 941.455 162.996 928.934 180.777 920.635C193.125 914.872 207.321 910.314 220.776 907.927C224.226 907.315 227.709 906.818 231.193 906.32C236.388 905.579 241.586 904.837 246.684 903.712L246.694 903.671C248.504 896.675 250.323 889.644 256.908 885.566C262.483 882.113 269.325 882.18 275.563 883.387C275.423 874.062 276.38 866.312 283.19 859.202C289.56 852.554 298 850.618 306.863 850.679L307.64 850.691C310.824 842.996 313.757 835.204 316.691 827.412C318.559 822.449 320.427 817.485 322.361 812.547L350.949 739.819C329.47 734.384 299.479 726.707 287.247 706.256C282.247 697.897 281.431 687.673 282.742 678.177C262.613 667.241 243.984 653.962 227.965 637.48C225.747 635.199 223.621 632.543 221.472 629.859C217.961 625.474 214.391 621.015 210.268 617.994C207.178 615.731 199.919 613.196 193.136 610.828C188.873 609.339 184.799 607.917 182.066 606.668C170.832 601.536 160.786 594.673 150.633 587.738L150.5 587.647C147.06 598.756 148.043 608.583 153.508 618.848C155.688 622.944 158.338 627.019 161.001 630.82C170.345 625.732 179.59 623.84 189.92 627.065C197.826 629.533 203.699 635.002 207.349 642.318L207.578 642.776C208.239 644.105 208.897 645.426 209.607 646.733C232.882 657.615 249.298 674.461 258.139 698.911C264.532 716.589 266.085 737.799 257.759 755.153C254.193 762.586 250.798 765.367 246.394 768.973C244.6 770.442 242.639 772.048 240.431 774.161C238.577 775.935 236.944 777.612 235.405 779.191C229.706 785.039 225.297 789.563 215.753 792.841C208.236 795.424 201.044 795.302 193.221 794.706C178.596 805.066 166.725 807.728 148.804 804.698C135.535 802.455 122.172 796.185 114.203 784.946C108.587 777.024 107.614 768.864 108.879 759.505C104.628 752.143 101.45 745.605 103.717 736.859C105.547 729.797 110.466 724.365 116.722 720.825C119.16 719.446 121.696 718.35 124.294 717.313C124.224 709.562 124.992 702.49 126.428 694.882C120.8 683.978 119.432 674.782 123.18 663.115C123.607 661.794 124.044 660.477 124.492 659.163C109.945 642.002 100.844 620.528 102.798 597.749C103.977 583.996 108.741 571.506 115.033 559.351C67.6351 519.451 25.7545 451.8 20.5343 389.084C17.1218 348.083 24.9566 303.435 52.2759 271.305C52.8123 270.662 53.357 270.026 53.9099 269.397C54.462 268.768 55.0219 268.146 55.5898 267.53C56.1576 266.915 56.7333 266.307 57.3168 265.706C57.8995 265.105 58.4898 264.511 59.0875 263.925C59.6852 263.338 60.29 262.759 60.9019 262.188C61.5139 261.617 62.1328 261.053 62.7589 260.497C63.385 259.941 64.0178 259.393 64.6573 258.853C65.2969 258.312 65.9428 257.779 66.595 257.255C67.248 256.731 67.9074 256.215 68.5731 255.707C69.238 255.198 69.9097 254.698 70.5881 254.207C71.2657 253.716 71.9493 253.233 72.639 252.758C73.3286 252.284 74.0242 251.818 74.7257 251.361C75.4272 250.903 76.1341 250.454 76.8461 250.015C77.5589 249.575 78.2769 249.144 79.0001 248.722C79.7233 248.299 80.4514 247.887 81.1843 247.483C81.918 247.079 82.6565 246.684 83.3999 246.299C84.1426 245.912 84.8904 245.536 85.6436 245.169C86.3959 244.802 87.1528 244.444 87.9141 244.095C88.6754 243.747 89.4409 243.408 90.2104 243.079C90.98 242.749 91.7536 242.429 92.5314 242.118C93.3091 241.808 94.0906 241.508 94.8759 241.217C95.6603 240.926 96.4486 240.645 97.2406 240.373C98.0333 240.102 98.8286 239.84 99.6265 239.588C100.425 239.336 101.227 239.094 102.032 238.863C102.836 238.631 103.643 238.409 104.453 238.197C105.263 237.985 106.076 237.783 106.891 237.592C107.706 237.4 108.523 237.218 109.343 237.046C110.163 236.875 110.984 236.714 111.807 236.562C112.631 236.411 113.456 236.27 114.283 236.139C115.11 236.009 115.939 235.888 116.769 235.777C117.599 235.668 118.43 235.568 119.262 235.478C120.095 235.388 120.928 235.308 121.763 235.24C151.895 232.989 182.591 245 205.178 264.616C217.029 274.909 228.141 287.367 234.01 302.139C241.113 288.949 241.232 270.9 236.974 256.81C235.18 250.87 232.834 244.755 229.175 239.693C227.397 237.233 225.049 235.146 222.712 233.069C221.26 231.778 219.811 230.491 218.507 229.121C210.132 220.317 207.873 207.51 213.776 196.659C221.151 183.106 235.058 177.756 248.626 172.536C252.236 171.147 255.822 169.768 259.255 168.245C279.594 132.396 316.852 110.46 355.64 99.7145C357.712 99.1403 359.822 98.6285 361.937 98.1154C365.924 97.1484 369.93 96.177 373.726 94.7756C362.335 86.2493 352.315 76.0857 350.086 61.2599C348.425 50.207 353.149 38.0088 359.838 29.3634C369.902 16.3558 386.699 9.44507 402.67 7.49875ZM128.121 307.088C129.313 307.026 130.506 306.972 131.699 306.924C145.569 308.738 156.572 317.722 164.86 328.554C175.729 342.762 179.937 359.484 184.189 376.38C184.67 378.292 185.151 380.205 185.643 382.118C171.732 410.515 162.364 438.938 161.857 470.873C161.817 473.417 162.587 485.888 163.183 495.542C163.582 502.006 163.903 507.207 163.851 507.322C163.598 507.885 162.004 508.876 161.415 509.018C159.394 509.505 157.094 508.177 155.585 506.968C153.665 505.433 151.828 503.748 150.003 502.075C149.414 501.536 148.827 500.998 148.239 500.466C113.309 469.471 87.5304 426.475 84.7354 379.129C83.5127 358.406 87.759 336.055 101.919 320.133C109.17 311.981 117.086 307.666 128.121 307.088Z" fill="#2889E3"/>
<path d="M600.581 225.178C594.317 226.309 587.904 229.019 581.779 230.87C569.339 234.627 556.711 238.124 543.94 240.572C466.379 255.436 354.844 263.341 277.172 252.385C267.525 251.024 258.068 248.966 248.567 246.835C265.237 289.532 241.747 319.509 219.572 353.492C208.056 371.14 196.591 389.822 188.672 409.396C176.938 438.396 174.19 467.4 177.713 498.302C188.641 492.843 203.435 483.443 216.091 484.48C221.436 484.918 226.349 487.833 229.675 491.993C233.555 496.844 235.85 503.99 235.118 510.195C233.271 525.858 216.534 530.689 204.811 537.263C198.885 540.588 193.467 544.355 188.234 548.68C198.616 578.439 220.433 609.794 242.986 631.529C249.504 637.81 256.631 643.362 263.848 648.805C292.88 669.042 316.859 679.163 351.398 686.694C379.917 692.913 408.638 694.996 437.762 695.021C503.853 695.078 571.594 683.784 627.998 647.428C673.363 618.189 700.03 577.827 711.327 525.308C714.435 510.86 715.305 495.772 714.873 481.018C714.586 471.243 714.043 461.324 712.37 451.68C705.538 412.323 684.205 376.293 659.335 345.713C643.789 326.598 625.504 308.856 612.172 288.125C599.051 267.721 595.451 248.846 600.581 225.178Z" fill="#FEFEFE"/>
<path d="M434.351 469.916C431.256 469.722 428.188 469.755 425.137 470.368C416.634 472.075 408.464 476.764 403.726 484.174C402.085 486.74 399.387 492.562 400.33 495.617C400.568 496.385 400.963 496.351 401.623 496.664C406.085 495.907 414.901 486.445 418.805 483.274C419.981 488.478 421.632 493.26 424.16 497.969C436.456 520.856 460.568 536.385 484.897 543.66C506.503 550.122 531.313 548.018 551.186 537.279C557.098 533.428 563.969 528.859 568.536 523.459C570.212 521.477 573.321 517.173 573.032 514.479C571.318 513.19 569.846 513.446 568.012 514.445C564.136 516.56 560.731 519.578 556.883 521.757C544.046 529.023 528.687 532.458 514.022 531.841C483.686 530.564 456.777 515.528 436.484 493.238C434.065 490.582 427.089 483.514 427.246 480.158C431.206 476.036 440.582 480.202 445.124 476.501C445.233 475.427 445.419 475.619 444.905 474.859C442.246 470.929 438.61 470.618 434.351 469.916Z" fill="#2889E3"/>
<path d="M433.876 348.374C432.694 348.183 431.664 348.129 430.467 348.266C426.288 348.743 423.023 350.972 420.522 354.284C411.675 365.994 411.472 384.636 413.453 398.455C414.581 406.317 420.665 424.761 427.273 429.24C428.703 430.209 429.877 430.566 431.564 430.276C432.139 429.033 432.166 428.579 431.927 427.173C431.286 423.387 429.755 419.494 428.692 415.789C425.649 405.188 423.169 392.573 425.907 381.645C426.888 377.728 428.517 373.932 432.223 371.908C436.753 369.432 441.415 370.56 446.019 371.996C460.489 379.331 466.52 400.55 467.83 415.4C468.148 419.018 467.397 425.77 468.982 428.794C469.721 430.206 470.09 430.323 471.479 430.931C472.692 430.816 473.453 430.837 474.486 430.118C476.368 428.809 476.911 423.859 477.19 421.651C477.348 420.371 477.475 419.089 477.57 417.804C477.665 416.518 477.728 415.231 477.759 413.942C477.791 412.653 477.791 411.364 477.759 410.074C477.727 408.786 477.663 407.499 477.569 406.214C477.473 404.928 477.346 403.645 477.188 402.365C477.029 401.086 476.839 399.811 476.618 398.541C476.397 397.271 476.145 396.007 475.862 394.749C475.579 393.491 475.264 392.242 474.919 390.999C474.574 389.757 474.199 388.524 473.793 387.301C473.387 386.077 472.952 384.864 472.486 383.661C472.021 382.459 471.526 381.269 471.002 380.091C470.479 378.913 469.926 377.749 469.345 376.598C468.763 375.447 468.153 374.311 467.516 373.19C466.879 372.069 466.215 370.965 465.523 369.877C464.831 368.789 464.113 367.719 463.369 366.666C462.624 365.614 461.855 364.58 461.06 363.565C453.693 354.291 445.693 349.705 433.876 348.374Z" fill="#2889E3"/>
<path d="M552.044 337.548C551.044 337.48 550.042 337.443 549.04 337.438C543.505 337.43 538.374 338.944 534.424 342.985C527.26 350.31 526.848 362.049 526.951 371.648C527.1 385.581 528.819 411.966 539.376 421.543C540.618 422.67 541.249 423.154 542.928 423.093C545.629 418.481 539.938 399.054 539.054 393.038C538.235 387.467 537.658 381.713 538.015 376.078C538.339 370.977 539.556 364.908 543.71 361.503C546.507 359.21 549.357 358.757 552.862 359.126C553.098 359.151 553.332 359.18 553.567 359.208C569.494 364.966 575.497 384.468 577.709 399.683C578.545 405.433 578.387 414.359 581.803 419.096C583.284 419.753 583.324 419.722 584.905 419.335C585.762 418.602 586.416 417.951 586.827 416.892C591.951 403.697 585.57 378.815 579.87 366.465C573.892 353.514 565.73 342.573 552.044 337.548Z" fill="#2889E3"/>
<path d="M524.204 432.784C523.236 432.671 522.658 432.741 521.728 433.024L521.465 434.047C522.282 436.997 524.437 439.19 526.892 440.928C539.809 450.066 557.452 439.977 567.859 448.417C570.941 450.916 572.496 454.356 572.706 458.279C573.481 472.647 557.316 484.458 545.627 489.353C541.267 491.18 532.325 492.166 529.469 495.578C528.766 496.417 528.999 496.475 529.112 497.456C531.867 499.782 537.78 499.256 541.195 499.347C547.301 499.242 552.895 497.847 558.451 495.348C569.989 490.16 579.519 482.218 583.998 470.122C586.666 462.921 587.337 454.531 583.851 447.485C582.127 444.001 579.608 441.208 576.541 438.849C564.276 429.412 550.798 435.598 537.148 435.356C532.497 435.273 528.57 434.301 524.204 432.784Z" fill="#2889E3"/>
<path d="M430.4 275.962C428.449 275.831 426.5 275.848 424.552 276.015C422.604 276.181 420.681 276.494 418.781 276.954C405.126 280.149 392.744 290.887 385.5 302.619C381.193 309.594 374.087 322.734 375.999 330.978C376.969 332.108 376.887 332.04 378.375 332.173C380.464 331.405 381.54 329.632 382.854 327.936C392.793 315.831 406.745 304.008 422.171 300.029C427.041 298.773 432.38 299.073 437.011 297.004C439.68 295.811 442.659 293.754 443.672 290.875C444.392 288.831 443.885 286.704 442.919 284.849C440.263 279.751 435.639 277.463 430.4 275.962Z" fill="#2889E3"/>
<path d="M536.368 265.985C534.519 265.819 532.681 265.692 530.824 265.799C525.675 266.091 520.023 268.396 516.617 272.364C515.003 274.247 514.025 276.587 514.399 279.096C516.488 293.057 536.387 287.767 545.92 290.755C555.898 293.883 564.495 299.274 572.679 305.663C575.456 307.751 581.148 314.815 584.15 314.876C585.205 314.132 585.614 313.967 585.709 312.549C586.124 306.391 578.167 293.989 574.456 289.144C565.023 276.828 551.894 268.013 536.368 265.985Z" fill="#2889E3"/>
<path d="M465.022 557.114C464.626 557.113 464.233 557.094 463.841 557.184C462.316 557.538 462.152 557.784 461.395 559.041C461.501 559.977 461.614 560.722 462.073 561.56C465.664 568.109 475.318 574.077 482.366 576.075C493.246 579.158 502.993 576.59 512.613 571.303C514.225 570.223 515.886 569.049 517.329 567.753C518.435 566.759 519.134 565.789 519.256 564.273C518.573 563.244 518.495 562.966 517.193 562.726C513.962 562.131 503.458 565.684 498.943 566.055C486.141 567.106 476.286 562.462 465.022 557.114Z" fill="#2889E3"/>
<path d="M450.14 106.985L449.353 106.957C447.69 109.616 445.852 111.758 443.257 113.566C431.051 122.07 410.373 123.886 396.117 120.978C388.664 119.457 379.396 116.407 375.004 109.814C360.792 112.025 347.303 116.269 334.167 122.062C303.61 135.537 276.26 158.473 264.004 190.246C298.933 199.538 336.502 199.477 372.394 199.071C387.953 199.216 403.676 197.929 419.193 196.935C470.72 193.635 523.762 187.744 573.697 174.265C568.584 165.781 562.259 157.397 555.618 150.05C534.297 126.462 500.463 112.726 469.415 108.362C463.051 107.468 456.555 107.298 450.14 106.985Z" fill="#FEFEFE"/>
<path d="M135.108 249.212C131.324 248.912 127.538 248.855 123.747 249.039C101.239 250.206 79.4776 261.427 64.672 278.266C40.4604 305.803 31.682 344.124 33.9626 380.086C38.0644 444.789 74.7056 505.187 122.672 547.361C130.348 537.198 138.77 528.375 148.158 519.788C143.865 516.197 139.699 512.465 135.659 508.591C131.62 504.718 127.715 500.712 123.947 496.574C120.179 492.434 116.555 488.173 113.076 483.789C109.597 479.404 106.271 474.907 103.097 470.298C91.1765 452.605 82.3712 434.698 76.5761 414.132C68.237 384.536 67.0927 350.41 82.6827 322.925C89.8519 310.285 101.368 299.152 115.674 295.311C129.101 291.704 142.445 294.059 154.373 300.956C178.147 314.703 188.82 339.857 195.696 365.202C205.124 349.307 215.74 333.983 225.521 318.28C221.981 307.082 215.798 296.385 208.382 287.317C190.262 265.165 163.324 251.965 135.108 249.212Z" fill="#FEFEFE"/>
<path d="M817.633 246.826C814.305 247.053 811.278 247.473 808.844 249.983C808.367 250.472 807.954 251.01 807.606 251.597C803.814 258.04 807.936 272.208 808.412 279.508C808.693 284.299 808.567 289.08 808.033 293.851C805.585 314.697 788.493 323.869 783.762 343.262C781.804 351.291 781.958 359.147 782.255 367.328C784.306 365.514 786.358 363.674 788.493 361.958C796.781 355.295 809.608 352.221 820.055 353.54C830.962 354.917 843.789 361.683 850.295 370.739C851.166 371.951 851.664 372.573 851.372 374.097C850.29 374.401 849.539 374.283 848.505 373.838C841.355 370.762 835.493 366.164 827.823 363.86C826.38 363.42 824.918 363.058 823.436 362.776C821.955 362.494 820.462 362.291 818.959 362.17C817.456 362.048 815.95 362.007 814.443 362.048C812.935 362.088 811.434 362.209 809.94 362.411C802.147 363.463 792.472 367.339 787.773 373.929C784.185 378.961 783.739 385.407 784.876 391.322C787.036 402.554 795.968 411.299 805.105 417.492C807.017 418.803 808.981 420.031 810.998 421.176C813.013 422.32 815.075 423.377 817.182 424.346C819.288 425.315 821.431 426.193 823.612 426.979C825.793 427.765 828.003 428.458 830.243 429.056C845.313 432.968 860.912 432.527 876.263 434.528C900.802 437.727 926.669 447.622 951.575 442.674C955.986 441.798 960.021 440.008 962.469 436.065C963.501 434.403 964.453 432.361 963.891 430.397C962.141 424.282 950.836 418.698 945.515 416.104C925.892 408.06 905.485 404.65 885.268 398.763C883.39 401.289 881.376 403.855 879.192 406.124C877.299 408.089 875.516 409.928 872.68 410.004C870.965 407.829 873.945 400.625 874.858 398.093C882.11 377.995 884.485 366.895 886.08 345.708L887.174 345.054L888.564 345.439C891.668 348.525 892.366 353.668 893.437 357.75C926.38 364.696 957.091 374.201 986.186 391.46C985.55 389.413 984.855 387.332 983.815 385.449C969.657 359.831 906.975 344.771 879.91 337.066C870.527 334.395 836.496 323.78 830.906 317.534C830.651 317.251 830.486 316.527 830.441 316.228C830.047 313.622 832.058 308.73 832.774 306.152C836.945 291.142 840.941 272.78 832.592 258.395C829.22 252.587 824.109 248.565 817.633 246.826Z" fill="#FEFEFE"/>
<path d="M589.64 168.408L587.76 168.402C586.841 170.41 590.627 177.267 591.41 179.719L591.641 180.457C586.878 185.205 580.671 187.075 574.349 188.781C532.422 200.092 488.243 205.22 445.084 208.847C395.831 212.987 346.106 215.317 296.815 210.441C280.565 208.833 260.315 207.096 246.051 198.881C247.414 194.364 249.066 189.923 250.627 185.472C243.153 188.091 235.986 190.963 230.51 196.945C226.985 200.796 224.405 205.778 224.886 211.127C225.407 216.94 229.058 221.007 233.239 224.655C238.933 228.084 244.764 230.603 251.152 232.462C322.05 253.085 482.845 239.821 556.6 222.959C572.368 219.354 590.095 215.42 604.257 207.502C610.044 204.267 615.459 199.952 617.158 193.197C617.285 192.689 617.386 192.177 617.46 191.66C617.534 191.142 617.581 190.622 617.602 190.1C617.622 189.578 617.615 189.056 617.581 188.535C617.547 188.013 617.487 187.495 617.399 186.979C617.312 186.464 617.198 185.954 617.059 185.45C616.918 184.947 616.752 184.452 616.561 183.965C616.369 183.479 616.153 183.004 615.912 182.54C615.671 182.076 615.408 181.625 615.121 181.188C609.641 172.829 598.732 170.365 589.64 168.408Z" fill="#FEFEFE"/>
<path d="M210.655 661.396C209.163 663.024 207.212 674.484 205.846 677.778C200.988 689.494 188.377 699.024 177.013 703.803C168.825 707.247 157.561 708.86 148.854 706.778C145.127 705.886 141.448 704.166 137.916 702.703C136.86 720.925 138.702 738.928 148.334 754.887C150.932 759.192 155.73 763.893 157.449 768.46C157.816 769.439 157.784 768.97 157.285 770.043C149.381 772.328 142.08 758.782 135.736 755.933C133.527 754.941 130.932 755.215 128.763 756.166C125.495 757.597 122.491 760.743 121.359 764.142C120.169 767.715 120.528 771.463 122.299 774.766C127.137 783.793 136.181 788.514 145.533 791.553C149.582 792.764 153.72 793.36 157.938 793.496C171.85 793.942 188.67 788.159 195.789 775.29C197.118 772.886 198.581 767.255 200.54 765.747C201.071 765.339 201.537 765.561 202.15 765.627C202.254 765.763 202.376 765.887 202.462 766.035C204.537 769.647 202.056 779.058 201.325 783.089L202.363 782.935C214.803 781.068 226.004 774.781 231.816 763.203C233.534 759.78 234.215 755.596 236.496 752.523L237.622 752.4C239.412 753.484 240.361 755.596 241.404 757.362C242.873 755.369 244.295 753.284 245.443 751.087C252.507 737.563 251.694 719.775 247.124 705.615C241.241 687.387 227.841 670.151 210.655 661.396Z" fill="#FEFEFE"/>
<path d="M191.379 709.389L190.016 709.815C189.344 711.079 189.275 711.755 189.529 713.181C191.47 724.109 199.728 736.144 200.175 748.277C200.281 751.148 199.984 754.78 201.183 757.414C202.58 758.018 202.75 757.913 204.262 757.601C206.565 753.357 207.728 749.531 207.581 744.669C207.228 732.946 199.86 717.395 191.379 709.389Z" fill="#2889E3"/>
<path d="M213.782 698.267C213.128 698.215 212.415 698.295 211.757 698.323C211.318 699.253 211.167 699.22 211.377 700.323C212.483 706.144 217.999 712.374 220.738 717.68C223.152 722.355 227.011 737.199 230.672 739.505C230.778 739.384 230.89 739.271 230.986 739.143C233.466 735.884 234.224 731.669 233.647 727.688C232.055 716.714 222.402 704.746 213.782 698.267Z" fill="#2889E3"/>
<path d="M606.76 676.156C600.787 678.014 594.8 681.282 588.965 683.659C579.198 687.639 568.992 691.086 558.869 694.029C496.013 712.303 417.843 714.771 353.691 701.982C340.179 699.287 326.579 696.122 313.602 691.446C310.779 690.429 300.026 685.531 297.842 685.782C296.792 686.784 296.561 687.028 296.381 688.558C295.872 692.894 299.476 699.694 301.918 702.968C302.325 703.406 302.73 703.847 303.159 704.263C330.126 730.502 411.949 733.491 448.707 732.609C486.592 731.7 573.686 724.864 600.366 695.943C605.447 690.435 606.971 683.42 606.76 676.156Z" fill="#FEFEFE"/>
<path d="M683.124 912.626C674.38 911.294 663.468 916.12 656.073 920.392C640.652 929.301 624.524 945.397 619.795 963.02C640.81 966.274 660.877 968.472 682.143 968.449C704.37 968.49 727.642 964.519 746.438 952.203L746.142 951.494C744.726 948.045 743.149 944.976 740.942 941.959C728.249 924.608 703.539 915.847 683.124 912.626Z" fill="#FEFEFE"/>
<path d="M416.407 20.5912C402.46 19.3221 387.609 23.184 376.634 32.0046C370.274 37.1154 365.997 43.7143 365.17 51.99C364.407 59.6208 366.189 66.8045 371.231 72.7218C379.077 81.9272 390.605 85.518 402.304 86.4515C416.667 86.4549 431.201 85.286 443.048 76.1971C449.483 71.2593 454.265 64.1563 455.192 55.9674C456.065 48.2572 453.389 40.7701 448.467 34.8722C440.641 25.4956 428.167 21.6651 416.407 20.5912Z" fill="#FEFEFE"/>
<path d="M218.852 923.799C208.607 923.615 197.389 927.392 188.092 931.356C173.06 937.767 159.637 948.245 153.407 963.666C168.088 977.59 194.383 978.246 213.58 977.956C235.892 976.97 257.983 973.304 279.785 968.566C278.469 966.333 277.07 964.154 275.586 962.029C262.289 943.299 241.885 927.761 218.852 923.799Z" fill="#FEFEFE"/>
<path d="M648.434 900.32C635.235 899.353 620.463 903.967 612.972 915.781C609.18 921.761 606.128 935.284 598.491 937.971C596.505 938.67 594.733 938.368 592.902 937.449C587.524 934.749 582.246 929.637 580.619 923.755C578.605 916.476 582.036 909.756 585.65 903.671C582.122 905.425 578.408 906.98 574.63 908.106C555.93 913.674 545.949 909.727 529.703 901.072C528.716 902.966 527.855 904.916 527.122 906.922C524.536 913.916 521.944 928.619 525.535 935.44C527.93 939.989 537.683 942.214 542.296 943.851C565.203 951.261 588.407 956.374 611.925 961.376C612.15 960.334 612.396 959.297 612.663 958.265C617.89 938.177 634.553 922.534 651.812 912.378C636.637 914.518 634.987 921.608 623.859 926.112C621.987 926.869 620.007 927.436 618.093 926.564C617.447 925.614 617.293 925.288 617.322 924.081C617.663 910.032 644.741 905.996 649.427 901.298L648.434 900.32Z" fill="#FEFEFE"/>
<path d="M360.059 901.059C340.322 912.52 326.83 912.715 304.907 907.389C307.908 911.043 311.331 914.757 313.557 918.943C315.997 923.53 317.132 929.119 315.401 934.158C314.089 937.979 310.715 942.072 307.011 943.772C292.573 950.398 285.79 916.968 270.273 911.766C263.626 909.538 257.088 910.246 250.915 913.329C259.666 915.924 268.95 919.002 275.262 925.994C276.787 927.682 278.892 930.465 278.529 932.883C278.402 933.735 277.854 933.838 277.205 934.294C273.039 934.678 270.343 932.494 266.923 930.415C257.685 924.965 250.419 921.325 239.593 920.541C243.965 922.973 248.561 924.945 252.869 927.518C268.743 937.001 279.169 950.188 286.904 966.709C314.133 959.265 343.623 952.777 367.934 937.843C369.723 923.725 367.26 913.226 360.059 901.059Z" fill="#FEFEFE"/>
<path d="M524.343 947.154C523.298 948.046 523.115 948.641 522.975 949.973C522.63 953.237 523.791 955.921 525.952 958.311C533.054 966.166 545.831 969.273 555.531 972.396C589.816 983.428 626.864 991.458 662.938 993.066C688.348 994.199 730.052 994.69 749.716 976.715C749.884 976.441 750.059 976.171 750.22 975.893C752.926 971.233 751.544 966.504 750.247 961.657C744.603 964.981 738.796 968.041 732.671 970.387C679.157 990.891 575.019 969.878 524.343 947.154Z" fill="#FEFEFE"/>
<path d="M371.188 947.281C366.151 948.719 361.139 951.835 356.42 954.144C349.682 957.497 342.778 960.461 335.707 963.036C288.95 979.83 222.532 995.825 173.168 984.806C169.236 983.927 164.816 982.887 161.171 981.155C157.755 979.532 154.634 977.077 151.016 975.98C149.966 976.747 150.203 976.316 149.852 977.375C148.733 980.756 149.144 986.434 150.672 989.56C151.557 990.405 152.461 991.25 153.444 991.981C173.416 1006.85 222.128 1003.25 246.186 999.814C257.471 998.199 268.68 996.164 279.812 993.711C297.952 989.594 359.254 973.646 369.829 958.518C372.338 954.929 371.928 951.347 371.188 947.281Z" fill="#FEFEFE"/>
<path d="M894.288 370.211C892.568 372.563 889.77 386.189 888.379 390.108C913.573 395.653 939.419 399.354 962.307 412.112C969.33 416.027 971.583 424.122 975.603 426.089C977.778 427.153 980.975 425.809 983.149 425.171C984.228 424.646 985.333 424.12 986.348 423.476C988.339 422.213 989.849 420.377 990.312 418.036C990.914 414.987 990.076 412.189 988.346 409.658C975.259 390.521 916.929 374.986 894.288 370.211Z" fill="#FEFEFE"/>
<path d="M181.997 637.954C178.409 637.737 175.246 638.528 171.847 639.525C173.619 643.121 176.577 647.158 177.365 651.076C177.431 651.404 177.489 651.734 177.539 652.064C177.589 652.395 177.63 652.727 177.662 653.059C177.695 653.392 177.719 653.726 177.734 654.06C177.749 654.394 177.756 654.728 177.755 655.063C177.753 655.397 177.742 655.731 177.723 656.065C177.705 656.399 177.677 656.732 177.642 657.064C177.606 657.397 177.561 657.728 177.508 658.058C177.455 658.389 177.394 658.717 177.325 659.044C177.255 659.371 177.177 659.696 177.09 660.019C177.004 660.342 176.909 660.663 176.807 660.981C176.704 661.299 176.593 661.615 176.474 661.927C176.355 662.239 176.228 662.549 176.093 662.855C175.958 663.161 175.816 663.463 175.665 663.762C175.515 664.061 175.357 664.355 175.192 664.646C175.026 664.937 174.853 665.223 174.673 665.504C174.493 665.786 174.306 666.063 174.111 666.335C170.612 671.275 164.861 674.583 158.93 675.582C148.859 677.276 143.16 672.808 135.627 667.273C134.265 670.487 133.264 673.747 133.375 677.275C133.567 683.432 136.642 687.749 141.059 691.697C145.829 694.71 150.786 696.536 156.441 696.818C167.682 697.375 179.367 692.742 187.635 685.195C197.146 676.514 199.379 666.776 199.965 654.322C198.994 652.427 198.035 650.491 196.897 648.689C193.147 642.749 188.852 639.505 181.997 637.954Z" fill="#FEFEFE"/>
<path d="M586.044 855.199C585.239 855.449 585.31 855.715 584.911 856.42C584.959 858.104 584.977 859.825 584.713 861.495C584.041 865.742 581.617 871.053 578.027 873.589C572.03 877.823 563.951 879.793 556.734 878.346C551.388 877.275 546.854 874.614 543.733 870.127C543.464 867.613 543.389 864.248 541.75 862.237C540.269 861.993 539.593 862.048 538.318 862.923C534.615 865.465 531.811 871.399 531.28 875.751C530.583 881.454 532.96 885.077 536.286 889.335C538.294 891.436 540.447 893.372 543.043 894.726C552.225 899.518 565.404 898.761 575.005 895.593C584.096 892.592 594.871 887.271 599.111 878.165C600.799 874.541 601.328 870.273 599.887 866.476C597.603 860.461 591.549 857.603 586.044 855.199Z" fill="#FEFEFE"/>
<path d="M770.392 377.08C769.823 377.796 769.386 378.585 768.93 379.376C763.566 388.694 762.168 398.891 765.04 409.288C769.037 423.754 778.587 436.946 791.787 444.24C801.852 449.801 812.867 451.567 823.954 448.359C828.07 446.884 830.175 445.176 832.998 441.957C825.018 438.99 816.953 436.089 809.463 432.001C784.84 418.558 778.036 402.708 770.392 377.08Z" fill="#FEFEFE"/>
<path d="M302.431 861.77C298.81 862.145 295.626 862.838 292.554 864.903C289.387 867.032 287.79 870.049 287.085 873.745C286.206 878.348 287.143 883.118 289.925 886.916C295.409 894.404 306.167 897.668 314.936 899.097C328.053 901.234 342.253 899.874 353.277 891.945C356.291 889.197 357.388 886.397 357.773 882.361C358.213 877.775 355.859 871.888 352.908 868.424C351.637 866.933 350.66 866.518 348.745 866.349C345.843 868.897 345.071 875.828 341.727 879.404C338.833 882.497 333.622 884.105 329.502 884.309C322.127 884.674 313.661 881.703 308.245 876.663C303.476 872.225 302.526 867.965 302.431 861.77Z" fill="#FEFEFE"/>
<path d="M211.919 497.064C188.81 503.568 157.458 528.697 141.456 546.516C127.027 562.586 115.502 584.424 116.858 606.632C118.227 629.068 130.327 648.051 146.842 662.685C147.033 662.75 147.214 662.848 147.411 662.88C149.051 663.138 149.689 662.699 151.104 661.98C151.41 661.314 151.751 661.042 151.487 660.301C149.979 656.064 138.447 644.98 134.76 639.365C131.863 634.953 129.837 629.824 128.07 624.869C111.388 578.081 153.195 536.977 189.532 514.758C194.238 511.88 212.471 504.378 214.129 500.884C213.848 499.151 213.031 498.327 211.919 497.064Z" fill="#FEFEFE"/>
<path d="M540.213 763.201C538.602 763.437 537.419 763.577 536.044 764.54C535.669 770.478 547.109 796.84 549.626 804.844C553.226 816.544 556.656 828.294 559.916 840.093C562.139 848.171 563.911 856.837 567.347 864.478C568.592 864.447 569.795 864.484 570.976 864.034C571.671 863.769 571.975 863.358 572.098 862.593C573.668 852.779 546.974 774.743 540.213 763.201Z" fill="#FEFEFE"/>
<path d="M365.222 777.837C364.007 777.755 362.804 777.777 361.587 777.791C359.597 779.169 358.702 782.261 357.785 784.485C350.048 803.218 343.891 822.533 337.104 841.612C334.087 850.093 328.822 861.498 327.04 869.954C326.733 871.416 327.294 872.723 327.841 874.043C328.206 874.074 328.57 874.113 328.936 874.137C330.494 874.243 331.447 873.975 332.553 872.795C335.209 869.96 354.22 810.982 357.662 801.326C359.777 795.395 362.56 789.604 364.458 783.624C365.093 781.629 365.297 779.926 365.222 777.837Z" fill="#FEFEFE"/>
<path d="M176.203 557.963C169.296 562.606 163.376 569.095 157.761 575.182C165.787 581.385 174.447 586.532 183.354 591.344C187.93 593.681 192.471 595.942 197.223 597.908C188.946 585.199 182.582 571.687 176.203 557.963Z" fill="#FEFEFE"/>
<path d="M435.264 96.4244C428.617 96.2362 419.545 100.216 411.852 100.692C408.33 100.911 404.624 100.93 401.117 100.502C397.805 100.097 394.042 98.6177 390.718 98.9673C389.866 99.057 388.919 99.3203 388.228 99.8459C387.113 100.693 387.138 101.223 387.082 102.483C387.836 104.146 388.835 104.953 390.198 106.086C390.637 106.28 391.075 106.476 391.524 106.649C403.675 111.335 421.202 110.621 432.903 104.906C434.908 103.926 436.101 102.886 436.852 100.747C436.841 98.8519 436.248 97.9486 435.264 96.4244Z" fill="#FEFEFE"/>
<path d="M771.889 454.871C768.829 457.154 766.458 462.514 764.161 465.771C755.373 478.23 743.163 483.035 728.762 485.661C728.645 488.172 727.959 491.735 728.994 494.017L730.166 494.228C737.191 493.368 744.261 490.823 750.408 487.342C758.612 482.698 772.153 467.007 774.615 458.084C774.32 456.606 772.982 455.797 771.889 454.871Z" fill="#FEFEFE"/>
<path d="M127.244 730.082C124.375 731.039 121.839 732.307 119.54 734.309C116.671 736.809 114.048 740.34 114.012 744.3C113.989 746.872 115.024 749.738 116.768 751.614C121.344 748.173 125.404 745.904 130.82 744.019C129.895 739.324 128.496 734.698 127.244 730.082Z" fill="#FEFEFE"/>
<path d="M289.448 909.514C288.88 909.681 289.27 909.525 288.489 910.333C288.59 911.384 288.769 912.171 289.183 913.157C291.613 918.949 297.3 929.957 303.154 932.442C303.6 931.966 304.108 931.467 304.441 930.901C305.101 929.779 305.112 928.41 304.881 927.169C303.517 919.842 295.204 913.545 289.448 909.514Z" fill="#FEFEFE"/>
<path d="M272.222 893.386C269.797 893.273 266.744 893.232 264.612 894.497C262.378 895.821 259.221 898.276 258.648 900.943L259.351 901.81C262.437 902.162 265.572 901.931 268.67 901.835C271.631 901.954 275.864 903.566 278.652 902.883C279.694 902.627 279.299 902.818 279.965 901.807C279.84 901.257 279.801 900.997 279.627 900.497C278.426 897.046 275.292 894.999 272.222 893.386Z" fill="#FEFEFE"/>
<path d="M606.293 902.785C602.179 904.131 597.986 908.691 595.82 912.315C593.327 916.488 592.391 919.96 593.523 924.681L595.562 925.433C596.511 925.127 596.872 925.124 597.598 924.379C601.06 920.828 606.455 907.652 606.293 902.785Z" fill="#FEFEFE"/>
<path d="M629.199 883.909C627.508 883.821 625.739 883.9 624.07 884.201C620.035 884.93 615.671 887.502 613.368 890.943C612.443 892.324 612.291 893.344 612.632 894.934C613.958 895.585 614.149 895.413 615.625 895.121C620.29 892.911 625.153 891.705 629.886 889.745C631.595 889.037 632.573 888.486 633.287 886.763C632.469 885.154 630.751 884.644 629.199 883.909Z" fill="#FEFEFE"/>
</svg>
