<svg width="1024" height="1024" viewBox="0 0 1024 1024" fill="none" xmlns="http://www.w3.org/2000/svg">
<path fill-rule="evenodd" clip-rule="evenodd" d="M609.594 44.9894C596.269 40.9265 582.739 39.8621 568.884 40.7033C545.974 42.8504 522.269 49.8058 507.074 68.2646C502.691 73.5132 499.127 79.3952 496.505 85.7106C492.901 94.6085 490.303 103.993 487.719 113.329C486.575 117.459 485.435 121.58 484.21 125.645C481.583 134.37 478.728 143.039 475.873 151.708C473.78 158.062 471.687 164.417 469.684 170.793L427.547 305.759C425.656 311.897 423.775 318.045 421.894 324.197C413.707 350.959 405.499 377.791 396.333 404.186C375.971 412.41 354.341 413.157 333.825 404.532C324.979 400.817 316.963 395.374 310.247 388.522C303.53 381.67 298.248 373.547 294.71 364.629C292.683 359.661 291.566 354.725 291.095 349.395C299.437 346.308 305.958 340.08 309.68 332.029C310.889 329.414 311.639 326.623 312.385 323.846C312.463 323.556 312.541 323.266 312.619 322.977C316.546 323.117 321.279 323.608 326.409 324.14C343.922 325.957 366.064 328.254 376.582 318.721C380.997 314.72 383.631 308.343 383.83 302.429C384.031 296.463 381.41 291.783 378.513 286.824C384.591 276.065 384.442 259.189 381.178 247.587C377.963 236.159 370.614 224.889 360.09 218.987C348.616 212.551 335.502 212.225 322.763 213.583C326.816 208.404 331.372 204.583 337.288 201.654C342.439 199.105 348.406 197.388 354.453 195.648C366.779 192.102 379.439 188.459 386.19 177.478C388.465 173.777 389.649 169.375 389.169 165.03C388.492 158.91 384.698 153.756 379.923 150.081C371.598 143.675 360.682 141.81 350.452 143.2C336.416 145.107 324.503 152.591 314.658 162.517C314.438 153.445 312.558 145.303 305.628 138.912C301.336 134.955 295.964 133.021 290.129 133.438C281.022 134.089 273.647 139.715 268.01 146.495C252.52 165.128 246.951 190.972 244.386 214.462C231.938 222.102 225.866 238.6 222.646 252.094C218.919 267.71 219.333 282.727 224.033 298.056C218.824 303.342 215.488 311.457 215.673 318.88C215.878 327.124 220.585 334.584 226.516 340.024C229.703 342.946 233.273 345.207 236.981 347.4C241.553 383.969 254.264 416.281 284.224 439.653C303.533 454.716 328.322 464.022 352.689 466.216C359.396 466.819 366.067 466.712 372.772 466.604C373.84 466.587 374.91 466.569 375.98 466.555L375.808 467.312C373.461 477.408 370.021 487.607 366.63 497.657C365.288 501.634 363.954 505.589 362.699 509.504L338.153 587.049C337.153 590.304 336.04 593.588 334.919 596.899C331.639 606.588 328.284 616.494 327.447 626.489C326.179 641.644 329.003 657.154 336.983 670.239C345.671 684.491 359.518 692.533 373.403 700.597C377.137 702.765 380.874 704.936 384.514 707.229C365.008 713.229 346.376 722.034 328.662 732.069C326.317 723.849 322.976 716.239 315.2 711.749C311.072 709.364 306.164 708.584 301.553 709.924C296.427 711.414 292.778 715.529 290.361 720.119C289.33 722.08 288.642 724.17 287.952 726.263L287.906 726.404C285.516 721.736 283.235 717.002 280.954 712.268C278.1 706.344 275.246 700.419 272.176 694.624C259.085 669.904 240.647 641.039 218.662 623.449C208.537 615.344 196.36 608.889 184.025 604.909C168.725 599.969 149.506 597.724 134.698 605.454C128.694 608.584 123.3 613.809 121.375 620.439C118.541 630.194 119.528 642.089 120.9 651.999C125.949 688.459 140.427 721.094 158.576 752.854C178.388 787.524 218.951 847.099 258.975 857.809C271.137 861.064 283.198 860.339 294.133 853.849C303.363 848.369 311.991 841.114 314.717 830.319C316.286 824.109 316.569 817.404 316.615 811.024C323.082 811.834 329.248 811.544 334.574 807.274C339.019 803.714 341.103 798.364 341.57 792.809C341.749 790.683 341.606 788.443 341.469 786.292C341.455 786.07 341.441 785.849 341.427 785.629C345.561 783.199 349.534 780.555 353.509 777.91C356.256 776.082 359.004 774.253 361.807 772.494C369.451 767.786 377.288 763.399 385.297 759.344C402.681 750.819 421.391 743.404 440.517 739.929C446.693 744.049 453.014 747.93 459.333 751.81C465.744 755.746 472.154 759.682 478.407 763.864C478.406 791.609 483.098 827.059 498.072 850.704C490.305 852.724 483.249 856.309 479.152 863.604C477.235 867.014 476.502 870.934 477.616 874.744C478.853 878.969 481.664 881.759 484.795 884.634C479.754 885.395 474.622 886.132 469.428 886.878C429.772 892.571 386.525 898.781 352.8 920.099C346.06 924.364 339.241 929.349 334.421 935.799C330.254 941.374 328.651 948.094 329.56 954.964C330.175 959.614 332.424 963.339 336.166 966.159C341.926 970.494 349.762 972.474 356.638 974.149C399.493 984.609 455.554 978.779 498.778 971.744C524.564 967.544 603.394 948.739 618.299 927.824C621.939 922.714 623.139 916.229 622.074 910.094C620.229 899.484 611.614 892.324 603.194 886.604C598.014 883.101 592.523 880.084 586.789 877.589C589.219 872.564 591.129 867.614 589.179 862.019C587.439 857.014 583.204 853.614 578.494 851.529C571.539 848.454 563.889 848.684 556.459 848.909C550.244 835.454 542.574 816.284 542.349 801.519C568.079 811.494 599.674 809.124 624.799 798.134C645.009 789.294 661.859 774.294 669.869 753.474C672.283 747.2 674.194 740.716 676.104 734.24C677.177 730.602 678.249 726.965 679.409 723.369C684.988 706.05 690.277 688.641 695.566 671.232C699.738 657.5 703.909 643.768 708.224 630.079L729.359 562.239C730.672 558.154 732.136 554.025 733.609 549.868C736.865 540.683 740.169 531.362 742.004 522.089C766.609 535.709 783.984 557.324 796.359 582.219C799.884 589.309 803.269 596.699 805.474 604.314C806.036 606.27 806.538 608.242 806.979 610.229C798.869 613.904 791.414 619.434 788.184 628.079C787.927 628.766 787.71 629.54 787.488 630.332C787.066 631.834 786.627 633.4 785.864 634.549C784.363 636.808 782.151 638.766 779.965 640.7C778.503 641.994 777.052 643.277 775.834 644.634C766.779 654.724 760.114 671.144 766.459 684.159C769.604 690.599 774.864 694.474 780.934 697.904C776.679 711.004 773.899 722.579 780.434 735.584C784.264 743.219 790.244 749.329 798.509 752.049C807.729 755.089 815.659 753.704 824.504 750.199C839.219 753.024 853.064 749.994 865.564 741.644L865.878 741.434C868.225 739.867 870.94 738.053 872.739 735.924C873.372 735.177 873.983 734.354 874.602 733.521C875.798 731.912 877.021 730.267 878.474 729.064C880.338 727.521 882.559 726.314 884.76 725.117C886.089 724.395 887.411 723.676 888.644 722.889C896.344 717.974 901.229 708.649 902.909 699.844C905.889 684.184 900.194 669.164 891.404 656.414C888.329 651.954 884.949 647.824 881.299 643.829C884.454 638.359 885.539 632.959 883.859 626.764C881.759 619.019 875.819 613.244 868.954 609.499C865.604 607.674 862.354 606.614 858.654 605.754C850.414 564.429 835.789 534.824 805.304 505.189C796.964 497.082 788.299 489.329 778.579 482.89C772.494 478.861 766.079 475.167 759.399 472.218L813.879 296.592L827.589 252.513C828.298 250.233 829.042 247.968 829.784 245.707C832.489 237.466 835.179 229.269 836.164 220.552C838.172 202.913 834.865 185.076 826.669 169.329C820.159 156.947 810.774 145.336 799.349 137.181C790.617 130.949 780.216 126.293 770.089 121.759C766.49 120.148 762.926 118.552 759.484 116.907L702.274 88.9531L649.494 63.2206C646.552 61.7644 643.598 60.2453 640.628 58.7175C630.545 53.5313 620.269 48.2462 609.594 44.9894ZM335.468 277.834C336.688 271.448 339.132 258.653 337.992 256.148C337.489 256.271 336.985 256.394 336.481 256.516C333.532 257.232 330.583 257.947 327.674 258.812C325.512 264.294 323.415 268.827 319.875 273.538C320.423 273.748 320.974 273.953 321.526 274.159C323.079 274.737 324.639 275.318 326.137 276.006C326.917 276.411 327.696 276.824 328.477 277.237C330.619 278.372 332.77 279.511 334.969 280.496C335.081 279.861 335.256 278.944 335.468 277.834Z" fill="#2889E3"/>
<path d="M508.27 892.455C510.05 892.92 511.88 893.27 513.625 893.835C515.095 894.31 518.3 895.585 518.98 896.905C517.245 896.595 515.755 896.065 514.12 895.415C513.875 895.34 513.635 895.255 513.385 895.195C511.055 894.605 509.6 896.08 507.645 897.08C506.525 897.66 505.825 898.135 504.57 897.755C505.105 895.875 506.78 894.83 507.805 893.215C507.96 892.96 508.115 892.705 508.27 892.455Z" fill="#FEFEFE"/>
<path d="M490.633 888.43C493.384 888.5 498.731 889.845 500.865 891.64C501.895 892.505 502.07 893.04 502.255 894.33C502.025 894.8 502.03 895.485 501.575 895.735C500.845 896.145 493.643 893.385 491.953 893.19C488.002 892.74 484.058 893.74 480.49 895.365L479.868 895.655L475.854 898.15L465.652 894.89C474.294 893.46 482.633 892.185 490.633 888.43Z" fill="#FEFEFE"/>
<path d="M273.372 716.824C275.869 719.039 279.051 726.344 279.844 729.664C279.301 729.044 278.781 728.619 278.101 728.154L277.254 728.559C274.444 732.229 273.353 737.339 272.065 741.729C269.233 740.699 266.478 739.494 264.42 737.229C264.09 736.029 263.961 735.734 264.587 734.554C265.44 732.944 267.169 731.699 268.078 730.014C270.248 725.989 271.705 721.104 273.372 716.824Z" fill="#FEFEFE"/>
<path d="M254.538 682.279C255.01 682.724 255.431 683.129 255.836 683.634C257.942 686.269 263.03 693.089 262.621 696.484C261.611 695.699 261.543 695.344 260.216 695.339C259.59 695.824 258.87 696.349 258.483 697.059C257.589 698.704 256.443 709.069 255.086 712.944C251.926 712.319 247.412 707.724 244.898 705.634C251.916 698.579 253.366 691.734 254.538 682.279Z" fill="#FEFEFE"/>
<path d="M441.473 899.625C442.699 899.445 443.888 899.28 445.123 899.485C449.665 900.245 453.903 904.025 456.55 907.62C456.485 910.905 458.168 917.855 455.833 920.33C454.343 921.91 452.041 921.505 450.096 921.395C449.19 919.745 449.409 917.81 448.941 916.02C447.04 908.76 439.821 904.82 433.785 901.465L441.473 899.625Z" fill="#FEFEFE"/>
<path d="M240.055 724.605C247.77 727.4 255.314 731.331 262.709 734.901C261.794 736.961 261.268 739.28 260.629 741.44C261.207 741.91 261.793 742.37 262.386 742.82C273.195 750.975 270.819 744.626 277.534 744.526C278.665 744.511 279.547 744.745 280.226 745.73C281.055 746.935 280.684 747.515 280.231 748.725C278.724 751.14 277.173 753.345 275.356 755.54C267.55 752.945 260.184 749.165 252.124 747.31C248.034 739.755 243.901 732.3 240.055 724.605Z" fill="#FEFEFE"/>
<path d="M394.356 712.59C396.237 713.495 398.026 714.615 399.832 715.66C392.984 719.41 384.689 721.405 377.32 724C358.656 730.57 338.73 739.42 323.851 752.635L320.844 755.895C321.822 753.43 322.728 750.82 323.943 748.465C331.677 733.45 378.204 718.075 394.356 712.59Z" fill="#FEFEFE"/>
<path d="M487.349 896.859C489.867 896.924 492.31 897.029 494.761 897.669C498.527 898.649 501.92 901.014 503.79 904.474C505.155 906.994 505.86 910.314 504.885 913.089C503.98 915.644 501.905 917.339 499.482 918.399C493.236 921.129 490.259 917.774 484.778 915.794C483.419 915.304 482.317 915.219 481.022 915.844C479.957 917.449 478.627 920.034 476.582 920.474C470.829 921.719 467.122 907.799 463.687 904.189C460.716 901.069 456.724 899.399 453.145 897.139C453.762 897.089 453.952 897.054 454.534 897.069C456.681 897.119 473.748 900.289 474.582 901.389C476.65 904.124 474.332 908.804 477.06 911.529C480.3 912.039 481.911 909.659 484.491 908.129C485.079 907.781 485.733 907.56 486.412 907.481C487.091 907.402 487.779 907.466 488.432 907.669C489.669 908.049 490.328 908.294 490.901 909.504C490.061 911.784 487.345 912.414 486.565 914.564C486.87 914.699 487.16 914.869 487.479 914.959C489.485 915.534 493.223 914.594 494.739 913.144C495.696 912.229 496.102 910.989 495.989 909.679C495.833 907.874 494.591 906.264 493.177 905.224C487.95 901.364 485.441 904.549 480.685 904.384C479.886 904.354 479.361 903.734 478.806 903.254C478.8 902.454 478.652 902.449 478.983 901.929C480.546 899.474 484.068 897.769 486.755 897.019C486.952 896.964 487.151 896.914 487.349 896.859Z" fill="#FEFEFE"/>
<path d="M524.434 790.145C527.229 791.355 529.389 793.199 531.674 795.159C534.704 814.814 538.899 833.525 547.369 851.65C550.344 858.025 555.129 864.23 557.439 870.805L556.834 871.715L550.514 873.385C534.949 850.455 526.504 817.67 524.434 790.145Z" fill="#FEFEFE"/>
<path d="M487.201 768.631C489.898 770.031 492.422 771.731 494.974 773.371C495.951 781.216 496.071 789.156 497.097 797.001C498.952 811.186 503.294 825.076 508.389 838.406C510.324 843.471 512.334 848.556 514.639 853.461C516.339 857.086 518.614 860.846 519.849 864.641C519.944 864.946 520.039 865.251 520.134 865.556C512.399 857.141 503.494 844.071 498.969 833.651C490.71 814.631 487.098 789.266 487.201 768.631Z" fill="#FEFEFE"/>
<path d="M260.292 816.465C262.406 817.995 274.508 845.665 277.006 850.48C266.129 850.72 257.203 848.52 247.585 843.46C239.737 839.2 230.727 832.96 224.449 826.495C236.73 825.3 249.373 822.345 260.292 816.465Z" fill="#FEFEFE"/>
<path d="M719.34 494.664C722.44 496.144 725.205 498.168 728.245 499.745C741.44 506.59 752.81 511.835 764.81 521.115C799.21 547.715 819.5 588.165 824.955 630.815C822.895 629.96 821.545 628.54 819.995 627C810.05 584.03 789.91 542.925 752.31 517.67C745.925 513.385 739.01 510.21 732.065 506.98C728.665 505.4 725.02 503.98 721.9 501.91C721.76 501.82 721.63 501.725 721.49 501.63C720.51 499.335 719.915 497.081 719.34 494.664Z" fill="#FEFEFE"/>
<path d="M237.407 656.24C241.128 659.555 247.038 669.495 248.592 674.435C250.698 681.135 248.964 690.985 245.054 696.82C243.6 698.99 241.206 701.32 240.255 703.72C239.668 705.2 239.798 706.425 240.531 707.83C242.258 711.14 252.157 718.485 255.711 719.16C256.45 719.3 257.223 719.4 257.855 718.92C261.047 716.5 261.776 707.985 262.403 704.115C264.076 707.765 266.798 712.2 267.501 716.115C266.101 720.415 264.541 724.62 262.24 728.525C253.948 724.995 246.263 720.755 237.442 718.63C232.244 709.755 227.812 700.395 223.211 691.2C224.601 690.035 225.988 688.79 227.231 687.465C235.289 678.9 237.759 667.625 237.407 656.24Z" fill="#FEFEFE"/>
<path d="M245.562 350.037L252.801 352.807C254.596 358.876 255.637 365.234 257.269 371.367C261.879 388.692 270.2 403.646 282.242 416.892C300.687 437.312 326.034 450.188 353.403 453.044C362.319 454.031 371.149 453.751 380.076 454.201C380.698 455.533 380.396 455.879 380.042 457.269C353.684 461.331 322.822 454.118 300.264 439.928C277.839 425.821 261.162 405.491 252.913 380.121C249.737 370.353 247.8 360.059 245.562 350.037Z" fill="#FEFEFE"/>
<path d="M280.269 352.078C281.232 352.16 281.621 352.016 282.089 353C283.135 355.202 283.477 358.613 284.102 361.03C285.113 364.939 286.487 368.503 288.193 372.16C295.125 387.023 305.381 398.859 319.491 407.368C336.202 417.445 357.282 421.53 376.6 418.909C382.38 418.125 387.885 416.485 393.525 415.079L393.205 416.536C392.904 417.929 392.756 419.436 391.935 420.636C391.46 421.331 391.137 421.141 390.38 421.211C375.769 426.186 359.007 428.054 343.706 425.76C333.383 424.204 323.479 420.583 314.586 415.114C305.694 409.645 297.994 402.44 291.948 393.929C286.87 386.916 275.274 361.948 276.606 353.534C277.709 352.192 278.594 352.372 280.269 352.078Z" fill="#FEFEFE"/>
<path d="M228.154 306.311C228.716 306.858 228.488 306.579 228.951 307.284C231.928 311.814 235.239 316.382 239.664 319.598C258.958 333.622 281.149 327 302.604 323.758C300.998 328.699 298.89 332.267 295.247 335.916C291.592 338.994 287.341 341.1 282.808 342.555C269.009 346.984 253.47 345.391 240.624 338.784C234.03 335.393 227.343 330.313 225.193 322.885C223.43 316.795 225.28 311.639 228.154 306.311Z" fill="#FEFEFE"/>
<path d="M732.56 472.058C733.615 471.956 734.685 471.862 735.745 471.882C740.87 471.98 746.264 474.677 750.789 476.842C771.249 486.625 789.97 501.024 805.24 517.759C827.285 541.519 842.492 570.8 849.25 602.499C851.125 610.984 852.85 619.819 852.455 628.534C851.11 629.444 849.699 630.234 848.294 631.044C846.449 611.324 840.934 591.374 833.034 573.214C828.269 562.269 822.66 550.919 815.825 541.124C799.555 517.824 771.804 495.684 746.534 482.85C740.389 479.73 733.805 477.306 727.395 474.779C729.035 473.734 730.82 472.92 732.56 472.058Z" fill="#FEFEFE"/>
<path d="M244.249 783.91L244.984 784C248.869 788.075 255.975 805.925 258.438 811.785C245.977 818.435 233.319 821.365 219.291 821.45L215.121 816.925C208.299 809.161 201.711 801.194 195.367 793.035C212.493 793.63 228.42 790.28 244.249 783.91Z" fill="#FEFEFE"/>
<path d="M559.59 854.605C563.31 854.93 567.27 855.735 570.72 857.19C574.335 858.715 577.97 861.081 579.44 864.901C580.575 867.856 579.985 870.915 578.61 873.675C574.715 881.495 565.55 887.57 557.405 890.11C543.36 894.495 528.99 890.405 515.315 886.66C507.025 884.385 498.793 882.041 491.149 878.021C489.04 876.631 486.718 875.075 485.747 872.625C485.146 871.11 485.269 869.515 485.942 868.055C488.587 862.305 497.311 858.921 502.855 856.831C508.54 863.321 512.985 874.605 521.385 877.87C532.2 882.065 547.865 881.555 558.425 876.785C560.845 875.695 563.28 874.011 564.18 871.391C565.99 866.116 561.79 859.265 559.59 854.605Z" fill="#FEFEFE"/>
<path d="M858.014 614.27C860.699 614.645 863.369 615.759 865.699 617.109C870.184 619.709 874.104 624 875.294 629.155C876.129 632.775 875.324 636.33 873.344 639.435C868.159 647.585 857.984 652.09 848.919 654.2C833.504 657.795 816.639 655.305 803.224 646.895C800.809 645.065 798.574 643.1 797.039 640.44C795.544 637.845 795.069 634.91 795.989 632.03C797.969 625.82 805.069 621.074 810.654 618.299C812.209 622.874 813.694 627.385 817.064 631.01C821.919 636.235 828.729 637.659 835.594 637.784C841.859 637.894 850.194 636.81 854.749 632.145C859.139 627.655 858.119 620.045 858.014 614.27Z" fill="#FEFEFE"/>
<path d="M226.828 747.975L227.411 748.05C230.989 750.525 240.587 773.77 243.048 779.24C233.759 783.326 223.932 786.054 213.867 787.34C210.374 787.8 193.798 789.69 191.318 787.785C185.159 778.25 178.92 768.769 172.602 759.34C193.117 759.99 208.253 756.72 226.828 747.975Z" fill="#FEFEFE"/>
<path d="M280.802 731.311C282.566 733.836 283.847 737.191 285.092 740.011C290.91 753.191 289.123 756.761 291.519 769.531C293.976 782.636 299.309 794.276 307.308 804.856C307.843 811.141 307.988 817.871 306.861 824.101C305.489 831.681 301.986 836.841 295.708 841.211C288.052 822.471 279.134 803.816 270.226 785.631L265.407 775.616C269.114 777.671 274.196 781.221 278.54 781.151C281.22 781.111 283.247 779.556 284.931 777.606C286.604 775.666 287.883 773.206 287.575 770.576C287.358 768.731 286.336 767.121 284.866 766.011C282.656 764.346 279.011 763.246 276.251 763.766C274.184 764.151 272.997 765.326 271.939 767.026C271.839 768.396 271.764 768.396 272.576 769.486C274.866 770.326 275.749 769.676 278.003 769.471C279.388 769.341 279.943 769.696 281.011 770.506C281.467 771.631 281.657 772.536 281.178 773.721C280.708 774.886 280.213 775.186 279.188 775.731C273.217 775.121 267.285 770.816 261.603 768.811C259.117 763.601 256.581 758.416 254.465 753.041C259.444 754.826 270.824 760.906 275.334 760.736C277.547 760.651 279.271 759.226 280.721 757.666C283.504 754.676 286.517 749.881 286.306 745.616C286.219 743.876 285.51 742.271 284.058 741.226C282.044 739.781 280.056 740.256 277.762 740.561C278.896 737.511 280.097 734.496 280.802 731.311Z" fill="#FEFEFE"/>
<path d="M157.816 609.525C175.222 609.495 192.444 616.535 206.955 625.695C217.423 632.3 229.16 641.995 231.806 654.77C233.608 663.48 230.863 671.965 226.217 679.285C224.381 681.98 222.398 684.49 220.326 687.01C203.512 658.565 186.493 627.655 157.816 609.525Z" fill="#FEFEFE"/>
<path d="M131.079 620.359C132.559 620.539 133.96 620.909 135.385 621.344C153.809 626.964 169.925 647.809 180.293 663.374C182.34 666.444 184.614 669.394 186.323 672.674C185.268 673.669 183.567 673.654 182.187 673.849C166.482 676.519 149.139 674.724 133.751 671.164C129.866 655.044 125.61 636.529 131.079 620.359Z" fill="#FEFEFE"/>
<path d="M209.518 711.814C212.303 714.274 223.615 737.829 225.724 742.629C207.425 752.914 189.728 755.564 169.033 753.914C162.881 743.124 157.356 731.869 151.465 720.924C171.607 722.034 190.883 720.049 209.518 711.814Z" fill="#FEFEFE"/>
<path d="M134.773 676.76C153.7 680.82 171.197 681.015 190.274 678.28C195.895 688.08 202.001 697.585 207.25 707.595L203.094 709.5C186.026 716.235 167.189 717.395 149.111 715.165C141.98 704.395 138.071 689.21 134.773 676.76Z" fill="#FEFEFE"/>
<path d="M305.154 718.575C307.955 718.56 309.739 718.845 312.015 720.59C318.337 725.44 320.12 734.21 321.256 741.61C317.362 748.105 311.04 758.925 312.856 766.77C313.485 769.485 315.139 771.615 317.511 773.045C321.222 775.285 324.608 775.79 328.684 774.27C337.768 770.87 345.629 762.63 353.814 757.335C373.366 744.695 397.205 734.09 419.804 728.275C422.483 729.585 425.036 731.36 427.571 732.94C408.129 738.275 390.557 745.97 372.686 755.21C365.627 758.54 358.524 762.67 351.991 766.945C345.042 771.49 338.483 779.07 329.99 780.445C312.229 783.325 310.89 761.185 305.959 757.59L305.389 758.335C304.545 765.61 306.541 771.285 310.793 777.125C316.397 784.82 323.235 787.645 332.386 789.11C333.115 790.07 333.308 791.29 333.165 792.49C332.785 795.69 330.417 798.88 327.798 800.645C325.855 801.955 323.602 802.595 321.297 802C307.679 798.475 300.192 776.095 298.655 763.74C297.278 752.67 301.324 746.28 294.572 735.715L294.195 735.13C294.951 731.525 295.664 727.65 297.47 724.395C299.272 721.14 301.614 719.51 305.154 718.575Z" fill="#FEFEFE"/>
<path d="M305.137 234.512C309.642 227.532 312.69 224.095 321.053 222.286C333.328 219.631 347.005 221.374 357.638 228.323C365.286 233.321 369.444 241.461 372.261 249.89C374.878 261.797 374.872 271.53 370.985 283.199C361.567 279.414 353.733 278.069 343.593 278.863C346.265 267.922 347.697 257.654 347.4 246.344C337.077 246.407 329.61 250.117 320.227 250.715C316.143 244.273 310.823 239.525 305.137 234.512Z" fill="#FEFEFE"/>
<path d="M143.794 610.475C145.591 610.5 147.216 610.845 148.881 611.52C162.607 617.1 176.777 632.465 185.698 644.15C195.305 656.73 203.36 670.59 211.213 684.31C224.045 706.671 236.069 729.488 247.26 752.715C262.355 783.345 277.554 814.08 290.988 845.48C288.438 846.775 285.696 847.81 283.06 848.93L241.857 761.53C226.219 728.85 210.037 696.705 189.972 666.475C185.573 659.845 181.311 653.21 176.42 646.925C167.071 634.915 150.699 616.705 134.832 614.74C137.865 613.425 140.823 611.925 143.794 610.475Z" fill="#FEFEFE"/>
<path d="M612.42 912.461C613 913.056 613.145 914.081 613.24 914.881C613.675 918.456 612.595 921.151 610.265 923.851C605.64 929.226 597.905 932.536 591.605 935.526C548.98 955.756 481.789 967.611 434.723 970.236C412.953 971.456 355.934 972.161 339.698 957.641C339.528 957.366 339.351 957.096 339.19 956.816C338.106 954.926 337.393 950.896 338.049 948.841C338.962 948.546 338.929 948.751 339.789 949.141C359.833 958.351 382.521 960.576 404.388 961.311C425.25 961.847 446.124 960.876 466.847 958.406C502.97 954.121 585.31 937.886 612.42 912.461Z" fill="#FEFEFE"/>
<path d="M352.491 151.632C358.807 150.79 365.232 151.802 370.983 154.545C374.766 156.376 378.779 159.197 380.054 163.418C380.767 165.777 380.323 168.043 379.513 170.317C374.837 183.454 353.677 186.645 342.185 190.56C336.957 192.342 331.657 194.64 327.075 197.755C317.105 204.532 310.403 214.869 304.681 225.227L301.195 231.09C294.52 226.978 287.742 224.069 280.422 221.383C286.241 212.448 291.785 203.319 297.682 194.441C310.526 175.102 329.038 156.403 352.491 151.632Z" fill="#FEFEFE"/>
<path d="M390.29 913.016C397.044 914.471 403.817 915.351 410.472 917.306C430.839 923.281 444.543 935.371 454.681 953.876C438.891 955.216 423.237 956.196 407.377 955.746C388.048 955.241 356.668 953.571 340.637 942.576C349.489 928.676 374.838 917.891 390.29 913.016Z" fill="#FEFEFE"/>
<path d="M582.339 882.836C591.514 886.046 605.094 898.936 610.314 907.281C609.985 907.679 609.65 908.073 609.309 908.461C605.454 912.826 599.919 915.531 594.824 918.196C574.339 928.901 552.789 935.136 530.439 940.636C516.939 943.961 503.539 947.041 489.837 949.421C480.336 951.066 470.775 952.891 461.148 953.576C459.141 948.845 456.636 944.342 453.676 940.141C441.554 923.256 424.885 913.561 404.627 910.171C403.496 910.056 402.872 910.001 401.828 909.501C405.319 907.076 421.074 904.091 425.886 902.931C431.76 905.331 439.723 910.006 442.725 915.756C444.224 918.626 445.236 922.036 447.691 924.266C449.259 925.691 451.177 926.021 453.238 925.961C455.551 925.891 457.773 925.236 459.362 923.471C462.468 920.016 461.992 914.321 461.891 910.021L462.759 911.781C463.943 914.156 465.098 916.646 466.62 918.826C469.171 922.476 472.868 925.166 475.641 928.641C478.403 932.101 482.008 941.896 485.911 943.201L486.775 942.561C489.136 936.061 486.459 927.501 484.538 921.246C490.104 923.521 495.727 925.611 501.704 923.351C513.734 918.801 507.909 903.786 508.999 901.266C512.889 897.946 515.509 901.221 519.754 900.711C522.184 900.416 523.009 899.206 524.409 897.406C530.944 898.806 537.564 900.276 544.274 900.316C559.969 900.401 571.544 893.631 582.339 882.836Z" fill="#FEFEFE"/>
<path d="M525.59 907.08C528.91 906.905 531.595 907.075 534.58 908.665C536.321 909.594 537.858 910.862 539.103 912.394C540.347 913.926 541.272 915.691 541.825 917.585C542.895 921.25 542.499 925.335 540.609 928.67C538.514 932.36 535.444 934.275 531.474 935.475C528.994 935.59 526.634 935.735 524.229 934.955C520.599 933.77 517.52 931.365 515.82 927.9C514.035 924.27 514.045 919.97 515.525 916.24C517.42 911.465 520.99 908.935 525.59 907.08Z" fill="#2889E3"/>
<path d="M526.615 912.5C528.12 912.56 529.61 912.615 531.035 913.16C532.246 913.62 533.346 914.333 534.261 915.25C535.176 916.167 535.886 917.268 536.345 918.48C536.752 919.55 536.934 920.693 536.881 921.837C536.828 922.981 536.54 924.102 536.035 925.13C534.785 927.67 533.025 928.61 530.46 929.57C528.915 929.605 527.095 929.735 525.605 929.34C523.535 928.795 521.685 927.095 520.71 925.23C519.655 923.215 519.55 920.705 520.335 918.58C521.535 915.335 523.6 913.92 526.615 912.5Z" fill="#FEFEFE"/>
<path d="M788.489 644.32C790.364 645.33 792.759 649.16 794.409 650.83C802.404 658.91 814.209 662.53 825.279 663.965C843.449 666.31 861.274 662.14 875.869 650.955C880.139 655.295 883.794 660.325 886.879 665.56C893.074 676.085 897.094 689.15 893.779 701.315C891.529 709.565 886.434 714.44 879.294 718.58C880.569 711.115 880.094 703.23 877.344 696.075C876.889 694.89 876.724 695.005 875.554 694.475L876.689 694.745L875.764 694.405L875.269 694.795C874.399 697.06 875.454 701.345 875.479 703.88C875.569 713.465 872.454 723.69 865.609 730.615C856.959 739.37 843.834 742.99 831.849 743.055C834.699 740.755 837.544 738.67 839.854 735.79C846.074 728.04 845.389 719.685 844.379 710.48C843.629 706.825 842.264 703.76 840.564 700.48C840.759 707.485 841.264 714.64 839.419 721.485C837.224 729.6 831.994 735.455 824.819 739.565C818.464 743.205 809.734 746.325 802.459 744.125C796.614 742.355 791.824 737.94 788.949 732.63C783.204 722.005 785.474 711.78 788.809 700.87C791.309 701.225 793.824 701.335 796.344 701.485C796.274 711.135 795.579 720.04 799.679 729.05C801.999 719.92 805.154 701.59 803.814 692.66C802.854 686.28 799.494 679.675 796.294 674.16C795.214 672.295 793.594 668.935 791.409 668.355L790.794 668.99C789.834 675.395 794.304 682.165 795.839 688.2C796.159 689.455 795.744 690.09 795.104 691.125C794.199 691.625 793.489 691.905 792.454 691.935C787.514 692.095 781.594 688.47 778.159 685.09C774.699 681.685 772.574 677.335 772.709 672.425C772.994 661.88 781.324 651.35 788.489 644.32Z" fill="#FEFEFE"/>
<path d="M253.126 220.444C254.613 211.074 255.273 201.697 257.242 192.379C260.564 176.646 267.09 155.338 281.591 146.27C285.644 143.736 290.698 142.195 295.45 143.43C298.941 144.338 301.555 146.692 303.232 149.84C307.545 157.932 305.003 167.268 302.688 175.507C291.46 186.142 281.925 206.038 275.452 220.018C271.623 219.333 267.846 218.793 263.945 218.852C261.811 218.884 256.114 218.918 254.709 220.376C269.222 220.953 287.731 228.852 299.552 236.861C305.373 240.805 313.589 249.793 320.23 250.715C318.497 254.906 317.577 259.414 315.648 263.551C314.425 266.173 312.786 268.917 310.201 270.392C307.268 272.065 302.361 272.212 298.999 273.15C294.858 274.306 291.17 276.07 287.376 278.065C286.045 265.949 282.282 253.73 272.439 245.725C270.82 244.407 268.78 242.635 266.568 242.85C266.504 243.108 266.33 243.363 266.375 243.625C266.641 245.164 272.241 251.785 273.392 253.569C275.404 256.69 277.009 260.059 278.43 263.485C280.952 269.566 281.643 280.898 280.372 287.45C279.57 291.586 276.649 296.948 277.368 301.083L278.521 301.874C278.644 301.803 278.774 301.744 278.889 301.661C284.007 297.944 286.671 284.49 287.631 278.682C293.831 279.46 300.253 278.231 306.579 278.999C316.362 280.186 324.128 282.809 330.392 290.767C339.353 286.267 348.36 284.438 358.315 286.538C364.022 287.741 369.818 290.415 372.964 295.563C374.869 298.679 375.596 302.529 374.561 306.072C373.422 309.97 370.211 312.798 366.698 314.596C352.795 321.71 328.353 313.727 312.501 314.255C292.766 314.913 273.571 323.766 254.018 317.391C244.929 313.459 238.538 307.547 234.183 298.556C226.476 282.643 228.604 260.71 234.212 244.477C237.868 233.893 242.697 225.454 253.126 220.444Z" fill="#FEFEFE"/>
<path d="M571.29 49.7112C583.03 48.5716 596.475 50.7504 607.7 54.1814C617.8 57.2684 627.16 62.5039 636.655 67.0504L688.98 92.4259L752.645 123.109C766.345 129.662 781.415 135.515 793.865 144.237C804.33 151.566 812.475 161.706 818.395 172.968C825.63 186.739 829.035 202.551 827.27 218.09C825.85 230.612 820.695 243.112 816.98 255.141L793.385 329.572C778.555 375.832 765.29 422.565 751.02 468.991C744.12 466.049 738.085 463.009 730.365 465.248C723.765 467.163 718.16 471.947 714.975 478.006C711.62 484.399 710.23 492.807 712.565 499.724C716.055 510.049 725.795 512.294 734.575 516.594C724.685 544.254 716.71 572.794 708.16 600.904L677.48 698.424L667.19 731.374C664.165 741.129 661.58 751.324 656.505 760.264C650.325 771.134 639.99 779.414 629.255 785.469C616.93 793.029 601.4 796.794 587.155 798.274C590.49 796.709 593.65 794.879 596.595 792.649C605.29 786.054 610.33 777.954 614.245 767.904C619.35 754.779 622.82 740.664 626.91 727.184L645.98 665.829L703.85 480.486C724.343 416.143 744.393 351.659 764 287.04C767.365 275.623 770.837 264.237 774.415 252.884C778.255 240.568 782.36 228.15 784.105 215.32C786.88 194.973 781.755 175.766 769.27 159.461C764.68 153.465 759.3 148.292 752.83 144.365C745.7 140.041 737.66 136.881 730.145 133.246L676.935 107.775L602.34 71.3414C592.91 66.8134 583.805 61.5799 574.15 57.5239C567.55 54.7519 561.275 53.0699 554.18 52.1379C559.87 50.9224 565.495 50.1999 571.29 49.7112Z" fill="#FEFEFE"/>
<path d="M771.53 321.485C773.195 321.39 774.705 321.297 776.25 322.109C778.845 323.478 780.41 326.07 781.3 328.789C785.08 340.392 777.88 368.514 772.35 379.34C769.75 384.428 766.915 387.492 761.425 389.295C760.445 389.197 759.45 389.103 758.49 388.889C755.475 388.217 753.19 386.23 751.715 383.565C747.035 375.1 752.38 359.182 754.92 350.336C757.655 340.816 762.345 326.56 771.53 321.485Z" fill="#2889E3"/>
<path d="M772.829 327.217L774.379 327.668C775.284 328.648 775.724 329.486 776.054 330.761C778.944 342.026 772.464 368.519 766.474 378.231C764.704 381.1 763.174 382.219 759.929 383.037C759.274 382.735 758.649 382.416 758.094 381.938C756.119 380.24 755.829 377.269 755.844 374.83C755.934 361.843 763.539 336.784 772.829 327.217Z" fill="#FEFEFE"/>
<path d="M798.694 239.545C800.139 239.451 801.524 239.377 802.924 239.832C805.494 240.669 807.519 242.539 808.669 244.965C813.374 254.86 808.119 271.861 804.789 281.442C801.659 290.45 796.874 301.068 787.859 305.396C785.984 305.521 784.259 305.577 782.469 304.905C779.984 303.973 778.239 301.801 777.304 299.377C772.949 288.085 780.954 265.364 785.474 254.899C788.334 248.269 791.694 242.358 798.694 239.545Z" fill="#2889E3"/>
<path d="M799.041 244.969C799.601 245.004 800.161 245.041 800.716 245.135C801.961 245.344 802.726 246.062 803.351 247.11C806.516 252.42 804.171 261.801 802.771 267.442C800.071 278.326 796.951 292.645 786.721 298.813C786.516 298.876 786.316 298.979 786.101 299.002C785.121 299.103 783.981 298.433 783.406 297.687C780.691 294.186 781.896 286.163 782.736 282.072C784.881 271.61 790.016 250.971 799.041 244.969Z" fill="#FEFEFE"/>
<path d="M543.586 58.2495C551.791 57.4215 559.456 58.6025 567.166 61.428C581.591 66.713 595.641 74.6445 609.466 81.3985L683.276 117.392L729.561 139.546C737.936 143.586 747.686 147.162 754.981 153.017C768.071 163.532 776.221 181.286 777.846 197.754C778.836 207.789 777.501 217.594 775.061 227.332C772.231 238.616 768.351 249.577 765.001 260.687L749.516 312.151L697.586 480.012L633.831 684.554C628.707 700.727 623.751 716.953 618.966 733.229C616.031 743.054 613.351 753.079 609.911 762.739C607.396 769.789 604.081 776.634 599.301 782.439C591.926 791.394 581.366 796.589 569.921 797.684C569.651 797.709 569.381 797.744 569.106 797.769C559.146 798.689 548.481 796.039 539.566 791.679C534.921 789.414 530.901 785.734 526.386 783.169C516.601 777.609 507.176 771.564 497.554 765.734C481.576 756.213 465.659 746.588 449.806 736.859C434.127 727.324 418.61 717.419 402.797 708.119C387.768 699.284 367.983 688.959 354.86 678.144C343.134 668.479 337.078 652.584 335.722 637.744C335.125 631.691 335.619 625.579 337.181 619.699C340.56 607.184 345.026 594.809 349.169 582.524C353.84 568.466 358.425 554.379 362.924 540.264L419.802 360.899L481.013 165.022L495.173 119.641C497.927 110.59 500.356 101.326 503.566 92.4315C506.086 85.469 509.581 78.835 514.356 73.153C521.956 64.1095 531.896 59.2 543.586 58.2495Z" fill="#FEFEFE"/>
<path d="M545.089 68.6552C549.869 68.3417 554.559 68.8122 559.054 70.5147C570.454 74.8302 581.519 80.6297 592.524 85.8577L656.729 116.773L707.359 140.962C719.044 146.451 731.729 151.532 742.639 158.377C754.394 165.754 762.269 177.996 765.289 191.428C767.599 201.712 766.684 213.036 764.149 223.191C760.729 236.909 756.149 250.402 752.034 263.921L725.699 349.342L634.324 643.9L612.584 714.395C608.459 728.085 601.429 756.94 594.219 768.215C587.729 778.365 578.914 783.88 567.249 786.425C560.529 787.055 554.669 787.235 548.324 784.51C537.329 779.785 526.654 772.01 516.369 765.81C493.152 751.83 470.027 737.698 446.995 723.415C430.076 713.072 413.081 702.855 396.009 692.765C386.384 687.1 376.123 681.88 366.93 675.56C356.307 668.25 349.292 656.705 347.049 644.02C345.51 635.315 346.204 626.015 348.435 617.49C353.259 599.065 360.449 580.94 366.264 562.79L405.521 439.432C431.487 355.289 457.958 271.303 484.931 187.478C489.251 173.792 493.709 160.117 497.868 146.384C502.589 130.786 510.704 97.0947 518.924 85.4902C525.404 76.3347 533.984 70.4887 545.089 68.6552Z" fill="#2889E3"/>
<path d="M543.911 74.6102C549.356 74.1242 554.181 74.5477 559.306 76.4952C568.166 79.8612 576.536 84.4667 585.086 88.5202C600.736 95.9392 616.491 103.232 632.016 110.905C638.221 113.971 644.251 117.38 650.486 120.381L712.471 149.681C722.426 154.452 734.901 159.115 743.471 165.891C752.996 173.416 759.331 186.289 760.696 198.224C761.411 204.453 761.356 211.532 759.866 217.654C756.991 229.478 753.146 241.206 749.516 252.817L733.216 305.21L678.981 480.526L616.351 682.005C608.986 705.725 603.146 730.17 595.056 753.64C593.266 758.835 591.156 763.585 587.706 767.91C581.946 775.125 574.166 780.4 564.866 781.39C559.466 781.965 553.841 781.275 548.891 778.995C536.941 773.495 525.446 765.335 514.136 758.54C485.817 741.332 457.588 723.975 429.451 706.47C415.867 698.125 402.093 690.175 388.398 682.025C381.204 677.745 373.227 673.64 366.754 668.335C356.675 660.075 352.76 648.38 351.562 635.79C351.926 617.505 359.34 599.98 365.327 582.9C415.08 612.487 465.075 641.667 515.306 670.435L565.176 698.545C574.941 704.01 584.736 710.03 594.901 714.7C598.606 706.22 600.736 696.375 603.446 687.495L620.291 632.73C645.775 552.623 670.745 472.355 695.201 391.928L727.811 286.959C730.571 278.015 742.771 242.984 742.351 236.181C737.501 231.008 695.666 212.385 686.726 208.072C628.111 179.71 569.199 151.965 510.001 124.841C513.071 114.774 515.126 103.219 520.136 93.9522C525.611 83.8257 532.971 77.8722 543.911 74.6102Z" fill="#FEFEFE"/>
<path d="M704.126 176.563C705.891 176.431 707.681 176.245 709.411 176.736C711.976 177.463 714.251 179.075 715.561 181.423C716.826 183.693 717.011 186.397 716.206 188.852C715.106 192.211 712.901 193.804 709.896 195.409C708.201 195.538 706.476 195.698 704.801 195.304C702.246 194.702 699.881 192.983 698.581 190.698C697.966 189.599 697.581 188.386 697.449 187.133C697.318 185.88 697.443 184.614 697.816 183.411C698.876 179.933 701.091 178.294 704.126 176.563Z" fill="#2889E3"/>
<path d="M595.456 123.056C597.046 122.958 598.601 122.894 600.146 123.33C608.941 125.806 619.236 131.649 627.626 135.543C638.061 140.385 648.457 145.313 658.811 150.325C665.021 153.308 671.476 156.13 677.421 159.619C679.166 160.646 681.241 161.762 682.226 163.601C683.121 165.274 683.211 167.156 682.591 168.939C681.491 172.083 679.506 173.759 676.611 175.18C675.831 175.234 675.086 175.289 674.311 175.208C668.211 174.573 604.101 144.133 596.891 140.226C594.811 139.099 591.916 137.604 590.541 135.652C589.381 133.997 589.226 131.679 589.786 129.786C590.751 126.543 592.611 124.707 595.456 123.056Z" fill="#2889E3"/>
<path d="M458.055 653.575C464.818 653.125 471.077 653.97 477.146 657.155C484.593 661.07 490.342 668.205 492.806 676.23C495.129 683.79 494.433 692.45 490.597 699.41C486.488 706.865 480.099 710.82 472.18 713.155C465.184 714.255 457.966 713.58 451.693 710.12C444.588 706.205 438.583 699.07 436.383 691.24C434.171 683.37 435.342 673.915 439.426 666.84C443.628 659.56 450.107 655.56 458.055 653.575Z" fill="#2889E3"/>
<path d="M458.469 659.075C463.173 658.555 467.786 658.975 472.2 660.745C478.996 663.475 484.193 669.165 486.822 675.945C489.289 682.31 489.314 689.755 486.371 695.97C483.297 702.46 478.13 705.325 471.692 707.655C465.608 708.485 460.049 708.315 454.462 705.385C451.433 703.807 448.758 701.629 446.599 698.983C444.44 696.337 442.843 693.279 441.906 689.995C440.014 683.375 440.746 675.55 444.105 669.535C447.323 663.775 452.27 660.755 458.469 659.075Z" fill="#FEFEFE"/>
<path d="M508.418 129.908C564.826 155.855 620.957 182.398 676.803 209.532C696.638 219.203 716.948 228.153 736.383 238.608C729.783 262.469 722.118 285.935 714.753 309.563L687.448 397.847L592.398 703.89C592.228 704.435 591.903 705.08 591.678 705.61C591.273 705.675 590.863 705.89 590.458 705.81C586.408 705.02 566.328 692.93 560.983 689.965C496.06 653.299 431.539 615.926 367.43 577.855C370.322 567.385 374.023 557.145 377.226 546.76L404.391 460.665L430.462 378.179C438.23 352.176 446.186 326.23 454.328 300.342L484.526 205.899L499.484 158.412C502.468 148.919 505.733 139.492 508.418 129.908Z" fill="#FEFEFE"/>
<path d="M511.785 423.877C513.685 425.384 515.37 427.452 517.06 429.202C522.085 434.392 526.605 438.728 532.92 442.321C542.945 448.026 555.63 451.586 567.045 448.363C575.155 446.07 582.35 441.329 586.54 433.934C580.685 431.031 575.13 430.075 568.775 428.967C574.865 426.366 581.04 424.953 587.625 426.869C594.92 428.993 599.005 434.095 602.45 440.477C604.93 446.283 605.815 452.183 604.775 458.422C601.24 451.427 597.895 444.49 593.26 438.135C587.27 445.868 580.265 452.016 570.85 455.173C559.725 458.903 547.19 457.607 536.79 452.327C525.625 446.66 515.655 435.879 511.785 423.877Z" fill="#2889E3"/>
<path d="M542.787 217.632C547.277 217.247 550.782 217.198 554.532 220.021C558.767 223.212 561.017 228.89 561.627 234.013C561.897 236.307 561.942 239.734 560.092 241.474C556.947 244.429 524.577 244.243 518.627 244.464C511.722 244.536 504.832 245.21 497.906 245.25C507.847 231.139 525.962 220.623 542.787 217.632Z" fill="#2889E3"/>
<path d="M634.18 245.086C636.49 245.003 638.245 245.054 640.37 246.035C651.705 251.282 660.84 267.243 664.735 278.571C666.335 283.234 670.155 295.073 667.22 299.521C666.565 300.519 665.67 301.042 664.48 301.144C661.285 301.418 658.335 297.987 656.175 296.03C650.84 291.544 618.27 266.433 617.07 263.338C616.625 262.187 617.035 260.664 617.52 259.583C620.405 253.197 627.755 247.356 634.18 245.086Z" fill="#2889E3"/>
<path d="M607.93 302.014C607.11 305.644 601.635 311.83 599.53 315.367C597.406 318.982 595.542 322.744 593.95 326.622C588.405 340.074 585.83 356.469 591.755 370.256C594.025 375.541 597.715 380.17 603.25 382.207C608.32 384.073 613.595 383.295 618.335 380.879C635.235 372.261 642.385 351.299 647.66 334.485C648.565 342.673 647.93 350.024 646.345 358.097C646.315 358.234 646.28 358.371 646.245 358.507C642.73 372.049 635.385 386.281 622.825 393.459C615.985 397.367 608.05 399.125 600.32 396.867C592.93 394.708 587.43 389.137 583.86 382.507C576.215 368.302 576.31 351.849 580.915 336.685C585.43 321.83 594.07 309.347 607.93 302.014Z" fill="#2889E3"/>
<path d="M502.14 266.406L502.8 266.746C499.166 274.307 495.575 281.606 493.201 289.694C489.289 303.021 486.683 321.333 493.967 334.053C495.916 337.455 498.792 340.171 502.69 341.083C506.59 341.995 510.495 340.861 513.84 338.82C529.3 329.391 535.73 306.165 539.565 289.799C539.86 292.43 540.125 295.098 540.175 297.746C540.495 314.242 534.44 333.131 522.66 345.029C518.296 349.437 503.803 356.447 497.215 353.384C492.615 350.526 488.78 347.321 485.885 342.653C478.332 330.476 478.419 312.1 481.726 298.616C484.584 286.958 491.586 272.842 502.14 266.406Z" fill="#2889E3"/>
</svg>
