<svg width="664" height="946" viewBox="0 0 664 946" fill="none" xmlns="http://www.w3.org/2000/svg">
<path d="M316.187 12.3214C332.82 11.3116 349.062 12.5894 365.058 17.4668C381.649 22.5281 397.435 31.6704 412.957 39.3528L476.318 70.244L544.997 103.802C560.759 111.336 578.646 118.001 592.854 128.14C606.569 137.93 617.835 151.868 625.651 166.733C635.49 185.637 639.459 207.049 637.049 228.224C635.542 241.56 630.711 253.883 626.755 266.593L610.297 319.509L544.895 530.343C536.613 552.89 536.613 554.09 524.013 590.212C520.814 606.382 513.893 622.672 508.833 638.41L483.461 719.85C471.714 757.119 460.85 794.652 448.869 831.842C444.998 843.841 441.943 856.218 437.417 867.983C427.801 892.976 407.573 910.984 383.312 921.596C353.15 934.789 315.221 937.634 284.333 925.659C229.893 894.424 222.478 890.425 207.572 880.456C192.666 870.486 177.021 861.686 162.087 851.722C118.849 830.199 125.614 831.842 94.8567 812.467C74.238 799.478 51.0317 789.772 37.7965 768.061C28.2168 752.353 24.8266 733.734 26.3494 715.541C27.6969 699.442 34.485 683.536 39.201 668.194L68.6679 575.104C73.9818 558.528 80.4726 541.371 84.4048 524.453L84.6119 523.545C106.244 459.853 88.6942 507.272 109.044 448.672C122.577 409.703 134.37 369.94 146.516 330.513L197.1 168.491C202.785 150.394 209.073 132.445 214.539 114.292C219.329 98.3836 223.057 81.7595 229.298 66.3514C232.446 58.77 236.724 51.7088 241.986 45.408C260.227 23.2487 288.684 14.899 316.187 12.3214Z" fill="#2889E3"/>
<path d="M319.075 23.1356C333.169 21.7675 349.309 24.3831 362.784 28.5019C374.909 32.2078 386.146 38.4929 397.544 43.9508L460.359 74.4134L536.787 111.247C553.233 119.114 571.324 126.141 586.27 136.611C598.833 145.41 608.611 157.582 615.718 171.102C624.403 187.633 628.491 206.616 626.372 225.27C624.667 240.302 618.479 255.308 614.019 269.749L585.694 359.101C567.891 414.634 551.967 470.736 534.836 526.47C531.328 537.884 530.593 540.269 515.094 583.616C503.222 616.821 493.648 651.082 483.384 684.828L446.553 801.897L434.2 841.453C430.569 853.164 427.466 865.402 421.373 876.135C413.955 889.184 401.548 899.124 388.661 906.393C373.865 915.468 355.221 919.988 338.121 921.765C342.124 919.886 345.918 917.689 349.453 915.012C359.891 907.095 365.942 897.371 370.641 885.306C376.77 869.55 380.936 852.605 385.845 836.423L408.738 762.768L478.21 540.269C502.811 463.026 526.881 385.616 550.418 308.042C554.458 294.336 558.626 280.668 562.921 267.039C567.531 252.254 572.459 237.347 574.554 221.945C577.885 197.518 571.733 174.461 556.745 154.887C551.234 147.69 544.776 141.479 537.009 136.765C528.45 131.574 518.798 127.781 509.776 123.417L445.899 92.84L356.35 49.102C345.029 43.6663 334.099 37.3836 322.509 32.5145C314.586 29.1868 307.053 27.1676 298.535 26.0488C305.366 24.5896 312.118 23.7223 319.075 23.1356Z" fill="#FEFEFE"/>
<path d="M285.817 33.3854C295.667 32.3914 304.869 33.8092 314.124 37.2011C331.441 43.5456 348.308 53.0671 364.904 61.1751L453.511 104.384L509.075 130.98C519.129 135.829 530.833 140.122 539.591 147.152C555.305 159.774 565.089 181.088 567.04 200.857C568.228 212.903 566.625 224.675 563.696 236.365C560.299 249.911 555.641 263.069 551.62 276.406L533.03 338.187L470.69 539.699L394.154 785.247C388.002 804.662 382.053 824.14 376.309 843.68C372.785 855.474 369.568 867.509 365.438 879.106C362.419 887.569 358.44 895.786 352.701 902.755C343.848 913.505 331.171 919.742 317.432 921.056C317.107 921.086 316.783 921.128 316.453 921.158C304.496 922.263 291.693 919.081 280.991 913.847C275.415 911.128 270.589 906.711 265.169 903.631C253.422 896.957 242.108 889.7 230.557 882.701C211.375 871.271 192.268 859.716 173.237 848.038C154.414 836.591 135.787 824.7 116.804 813.536C98.762 802.93 75.0101 790.535 59.2569 777.552C45.1796 765.949 37.9101 746.868 36.2817 729.053C35.5655 721.785 36.1587 714.448 38.0332 707.39C42.0902 692.366 47.4509 677.511 52.4244 662.763C58.0322 645.886 63.5367 628.975 68.9375 612.031L137.218 396.708L210.699 161.563L227.698 107.084C231.004 96.2193 233.921 85.0981 237.774 74.4199C240.799 66.0616 244.995 58.0977 250.727 51.2766C259.851 40.4202 271.784 34.5265 285.817 33.3854Z" fill="#FEFEFE"/>
<path d="M287.623 45.8765C293.361 45.5001 298.991 46.065 304.388 48.1088C318.073 53.2894 331.356 60.2515 344.567 66.5276L421.644 103.641L482.424 132.678C496.451 139.268 511.679 145.367 524.776 153.585C538.888 162.44 548.341 177.137 551.967 193.262C554.74 205.607 553.642 219.202 550.598 231.392C546.493 247.86 540.995 264.059 536.055 280.288L504.44 382.833L394.747 736.442L368.649 821.069C363.697 837.504 355.258 872.143 346.602 885.678C338.811 897.863 328.229 904.484 314.225 907.539C306.158 908.295 299.124 908.511 291.507 905.24C278.307 899.568 265.492 890.234 253.145 882.791C225.275 866.008 197.514 849.043 169.865 831.897C149.554 819.481 129.151 807.215 108.657 795.103C97.1021 788.302 84.7847 782.036 73.7482 774.449C60.9962 765.673 52.5749 751.814 49.8822 736.586C48.0341 726.136 48.8678 714.971 51.546 704.737C57.3371 682.619 65.9685 660.86 72.9487 639.072L120.076 490.984C151.247 389.973 183.024 289.149 215.406 188.52C220.592 172.09 225.943 155.673 230.936 139.188C236.603 120.463 246.345 80.0173 256.213 66.0864C263.992 55.0955 274.292 48.0775 287.623 45.8765Z" fill="#2889E3"/>
<path fill-rule="evenodd" clip-rule="evenodd" d="M304.688 55.2889C298.536 52.951 292.743 52.4426 286.207 53.0261C273.074 56.942 264.238 64.089 257.666 76.2456C253.356 84.2158 250.868 93.5963 248.448 102.72C247.491 106.33 246.544 109.9 245.499 113.327C316.565 145.889 387.286 179.196 457.652 213.243C461.487 215.093 463.93 216.389 468.533 218.829C476.814 223.219 492.082 231.312 535 253L537.101 254C540.128 244.309 543.07 234.555 545.455 224.746C547.243 217.397 547.309 208.898 546.451 201.421C544.812 187.094 537.207 171.64 525.773 162.606C517.982 156.447 507.504 151.741 497.686 147.333C494.539 145.92 491.459 144.537 488.558 143.147L414.147 107.972C410.085 106.018 406.096 103.918 402.106 101.819C398.744 100.049 395.381 98.2798 391.974 96.5966C378.267 89.8224 364.41 83.2946 350.564 76.7718C345.584 74.4258 340.606 72.0805 335.636 69.7246C332.537 68.2554 329.458 66.7257 326.376 65.1948C319.251 61.6555 312.113 58.1097 304.688 55.2889ZM359.948 828L358 827C347.588 822.217 329.797 812.203 317.517 805.291C315.404 804.102 313.455 803.005 311.735 802.042L251.867 768.297C191.566 733.761 131.549 698.732 71.8212 663.214C70.7617 666.237 69.6649 669.271 68.5635 672.318C62.1942 689.941 55.6699 707.992 55.2979 726.707C56.7354 741.821 61.4347 755.86 73.5342 765.776C79.4997 770.665 86.5284 774.705 93.3792 778.642C95.453 779.834 97.5105 781.017 99.5173 782.211C104.894 785.41 110.28 788.584 115.665 791.757C126.748 798.287 137.826 804.814 148.801 811.556C182.578 832.57 216.466 853.407 250.463 874.065C254.5 876.49 258.557 879.061 262.642 881.649C272.295 887.765 282.105 893.981 292.185 898.62C298.127 901.357 304.88 902.186 311.363 901.495C322.527 900.307 331.867 893.975 338.781 885.313C342.923 880.121 345.456 874.419 347.605 868.182C352.157 854.975 356.116 841.511 359.948 828Z" fill="#FEFEFE"/>
<path d="M348.085 111.184C349.994 111.066 351.861 110.989 353.715 111.512C364.274 114.485 376.632 121.499 386.704 126.174C399.232 131.987 411.711 137.902 424.141 143.919C431.596 147.5 439.345 150.888 446.482 155.077C448.577 156.309 451.068 157.649 452.25 159.857C453.325 161.865 453.433 164.124 452.688 166.265C451.368 170.039 448.985 172.051 445.509 173.756C444.573 173.821 443.679 173.887 442.748 173.79C435.426 173.028 358.463 136.485 349.808 131.796C347.311 130.443 343.835 128.648 342.185 126.305C340.792 124.318 340.606 121.535 341.278 119.263C342.437 115.369 344.67 113.165 348.085 111.184Z" fill="#2889E3"/>
<path d="M183.141 748.057C191.259 747.516 198.773 748.531 206.059 752.354C214.999 757.054 221.9 765.62 224.859 775.253C227.648 784.329 226.812 794.725 222.207 803.08C217.274 812.03 209.604 816.778 200.098 819.581C191.699 820.901 183.034 820.091 175.504 815.937C166.974 811.237 159.766 802.672 157.124 793.272C154.469 783.825 155.874 772.474 160.778 763.981C165.822 755.242 173.599 750.44 183.141 748.057Z" fill="#2889E3"/>
<path d="M183.636 754.66C189.283 754.035 194.821 754.54 200.12 756.664C208.278 759.942 214.517 766.772 217.673 774.912C220.634 782.553 220.665 791.49 217.131 798.951C213.441 806.742 207.239 810.181 199.51 812.979C192.207 813.975 185.533 813.771 178.826 810.253C175.19 808.359 171.978 805.744 169.387 802.568C166.795 799.391 164.878 795.72 163.752 791.778C161.481 783.831 162.36 774.437 166.393 767.216C170.256 760.302 176.194 756.676 183.636 754.66Z" fill="#FEFEFE"/>
<path d="M243.602 119.41C311.318 150.559 378.702 182.422 445.744 214.996C469.555 226.606 512.169 245.449 535.5 258C521.922 307.087 365.411 813.736 362.5 820C357.638 819.052 313.122 795.302 306.705 791.742C228.767 747.726 151.31 702.861 74.3496 657.157C77.822 644.588 82.2643 632.296 86.1095 619.829L118.721 516.475L150.018 417.452C159.344 386.237 168.894 355.089 178.668 324.011L214.92 210.635L232.877 153.628C236.46 142.232 240.379 130.915 243.602 119.41Z" fill="#FEFEFE"/>
<path d="M237.141 547.046C240.04 549.347 242.612 552.503 245.191 555.173C252.86 563.094 259.758 569.711 269.396 575.195C284.695 583.901 304.054 589.334 321.475 584.415C333.852 580.916 344.833 573.68 351.227 562.394C342.292 557.964 333.814 556.506 324.115 554.814C333.41 550.844 342.834 548.688 352.883 551.612C364.016 554.854 370.251 562.641 375.508 572.381C379.293 581.241 380.644 590.245 379.057 599.766C373.662 589.091 368.557 578.505 361.483 568.806C352.341 580.608 341.651 589.99 327.282 594.808C310.304 600.501 291.174 598.523 275.302 590.465C258.262 581.816 243.047 565.363 237.141 547.046Z" fill="#2889E3"/>
<path d="M284.452 232.288C291.304 231.701 296.654 231.625 302.377 235.934C308.84 240.803 312.274 249.469 313.204 257.288C313.617 260.789 313.685 266.018 310.862 268.674C306.062 273.184 256.661 272.9 247.58 273.238C237.042 273.347 226.527 274.376 215.958 274.437C231.129 252.901 258.775 236.852 284.452 232.288Z" fill="#2889E3"/>
<path d="M423.933 274.188C427.458 274.062 430.136 274.14 433.379 275.637C450.678 283.645 464.62 308.003 470.564 325.291C473.006 332.408 478.835 350.475 474.356 357.263C473.357 358.787 471.991 359.585 470.175 359.74C465.299 360.159 460.797 354.922 457.5 351.936C449.358 345.089 399.652 306.767 397.82 302.044C397.141 300.287 397.767 297.962 398.507 296.313C402.91 286.567 414.127 277.652 423.933 274.188Z" fill="#2889E3"/>
<path d="M383.871 361.067C382.62 366.608 374.264 376.049 371.052 381.447C367.811 386.964 364.966 392.704 362.536 398.623C354.073 419.152 350.144 444.174 359.186 465.215C362.65 473.281 368.282 480.344 376.729 483.453C384.466 486.302 392.517 485.114 399.751 481.427C425.543 468.274 436.454 436.284 444.505 410.623C445.886 423.119 444.917 434.338 442.498 446.659C442.452 446.867 442.399 447.076 442.345 447.284C436.981 467.951 425.771 489.671 406.603 500.625C396.164 506.59 384.054 509.272 372.257 505.827C360.979 502.532 352.585 494.029 347.137 483.912C335.47 462.233 335.615 437.123 342.643 413.98C349.533 391.31 362.719 372.259 383.871 361.067Z" fill="#2889E3"/>
<path d="M222.421 306.726L223.428 307.244C217.882 318.784 212.402 329.922 208.778 342.266C202.809 362.605 198.831 390.551 209.948 409.964C212.922 415.156 217.311 419.301 223.261 420.692C229.212 422.085 235.172 420.354 240.277 417.239C263.871 402.85 273.684 367.403 279.537 342.426C279.987 346.441 280.392 350.514 280.468 354.554C280.956 379.73 271.715 408.557 253.738 426.715C247.077 433.442 224.958 444.141 214.904 439.466C207.884 435.104 202.032 430.213 197.613 423.088C186.087 404.505 186.219 376.461 191.266 355.882C195.628 338.091 206.314 316.548 222.421 306.726Z" fill="#2889E3"/>
</svg>
