<svg width="1024" height="1024" viewBox="0 0 1024 1024" fill="none" xmlns="http://www.w3.org/2000/svg">
<path fill-rule="evenodd" clip-rule="evenodd" d="M701.019 29.4401C695.483 29.3313 689.943 29.2224 684.43 29.4081L525.593 33.1393L471.631 34.5839C469.265 34.6525 466.881 34.7024 464.485 34.7525C452.98 34.9931 441.215 35.2391 430.054 37.5961C418.107 40.1192 408.24 44.9886 399.669 53.7882C398.628 54.8416 397.624 55.9305 396.66 57.055C395.696 58.1795 394.773 59.3367 393.89 60.5266C393.008 61.7165 392.169 62.9362 391.373 64.1857C390.577 65.4351 389.826 66.7111 389.12 68.0137C388.415 69.3164 387.756 70.6424 387.144 71.9917C386.533 73.341 385.97 74.7103 385.456 76.0997C384.941 77.4884 384.477 78.8939 384.061 80.3162C383.646 81.7386 383.282 83.1737 382.969 84.6216C380.543 96.1031 380.633 107.711 380.723 119.357C380.737 121.158 380.751 122.96 380.756 124.762L380.83 162.461L380.7 299.609C343.625 299.475 315.191 300.726 287.159 328.663C273.212 342.563 263.429 363.511 263.521 383.373C263.627 406.222 274.414 428.299 290.636 444.047C314.086 466.811 343.2 472.474 374.698 471.911C376.703 471.873 378.707 471.814 380.71 471.734C380.649 477.684 380.979 483.734 381.309 489.799C381.849 499.71 382.392 509.664 381.238 519.296C361.536 544.716 312.934 568.01 281.384 571.947C259.786 574.644 237.221 569.988 219.931 556.437C204.644 544.454 195.3 528.783 190.517 510.101C203.476 502.244 215.167 489.254 218.85 474.266C221.732 462.531 220.62 449.517 216.394 438.245C237.954 414.312 251.721 384.818 250.156 352.033C249.314 334.376 243.018 317.391 229.602 305.405C223.587 300.03 216.569 296.546 209.182 293.456C208.598 270.519 211.509 248.389 215.001 225.76C216.032 219.077 217.47 211.739 218.969 204.09C223.253 182.236 228.034 157.846 225.233 138.95C223.877 129.798 220.243 120.651 213.31 114.285C206.404 107.945 196.524 104.83 187.233 105.461C176.869 106.165 167.211 111.911 160.601 119.749C151.105 131.009 145.668 147.752 142.535 161.976C141.08 168.577 140.264 175.404 139.456 182.165C139.259 183.808 139.063 185.447 138.858 187.079C136.315 207.358 134.816 227.791 133.319 248.187C133.058 251.749 132.797 255.31 132.53 258.869C131.317 254.798 130.016 250.27 128.616 245.4C116.376 202.817 96.6173 134.072 62.8866 115.795C54.4306 111.214 44.8155 109.734 35.4872 112.482C26.7684 115.05 18.7684 121.513 14.4966 129.552C6.14141 145.275 11.2724 166.509 16.3817 182.459C19.2031 191.268 23.0704 199.781 26.9197 208.254C28.4319 211.583 29.9413 214.905 31.3834 218.237C32.5269 220.879 33.6648 223.516 34.8006 226.147C42.2411 243.387 49.5921 260.419 57.8588 277.382C38.5134 281.283 20.7435 288.096 9.33566 305.275C-3.27488 324.265 -0.853641 343.116 3.55914 364.249C12.2167 405.714 23.5585 439.239 60.7723 463.607C62.5074 464.747 64.2585 465.862 66.0256 466.953C65.4005 474.299 66.2752 480.601 68.0655 487.731C73.0693 501.765 81.2529 512.315 95.0018 518.731C103.725 522.801 112.964 524.307 122.401 525.652C129.844 560.558 160.617 596.695 190.095 615.914C216.701 633.261 240.018 638.04 271.317 636.846C282.599 636.415 293.677 635.553 304.738 633.135C332.38 627.095 352.885 614.396 376.033 600.06C377.895 598.907 379.774 597.743 381.675 596.571C382.256 616.67 382.128 636.837 382.001 656.982C381.948 665.431 381.894 673.876 381.893 682.311L381.868 836.467L381.846 892.238C381.844 895.043 381.802 897.879 381.761 900.732C381.607 911.313 381.449 922.124 383.255 932.392C385.651 946.013 391.485 958.983 401.576 968.638C410.837 977.502 421.305 983.163 433.793 985.84C445.785 988.411 458.912 988.95 471.458 989.465C473.675 989.555 475.874 989.646 478.046 989.746C500.255 990.775 522.539 991.154 544.798 991.532C552.136 991.656 559.471 991.781 566.8 991.929L691.18 994.016C697.534 994.085 703.895 994.205 710.261 994.324C726.571 994.631 742.906 994.938 759.188 994.402L760.659 994.354C790.103 993.39 823.943 992.281 845.359 969.41C858.037 955.872 863.523 938.198 864.473 919.991C883.804 925.887 901.257 924.204 919.217 914.635C938.697 904.256 957.406 885.013 963.778 863.492C966.968 852.715 966.929 840.421 961.421 830.4C956.163 820.831 948.049 816.144 938.277 812.164C941.388 797.973 940.495 785.452 938.44 771.212C949.057 764.798 956.236 758.119 959.189 745.765C961.88 734.507 960.31 724.541 955.989 713.978C984.543 691.481 1018.76 659.365 1023.42 621.414C1026.12 599.427 1019.29 579.506 1005.62 562.318C974.203 522.83 909.827 492.751 864.374 473.159L864.388 201.933L864.424 131.538C864.424 128.154 864.49 124.717 864.557 121.255C864.767 110.328 864.982 99.1548 863.146 88.639C862.988 87.7831 862.813 86.9299 862.623 86.0796C862.432 85.23 862.224 84.3844 862.001 83.5429C861.778 82.7013 861.539 81.8642 861.285 81.0314C861.03 80.1987 860.758 79.3711 860.471 78.5487C860.185 77.7264 859.883 76.91 859.564 76.0997C859.247 75.2885 858.913 74.4841 858.565 73.6863C858.216 72.8884 857.852 72.0973 857.473 71.3132C857.094 70.5292 856.701 69.7527 856.292 68.9837C855.883 68.2146 855.46 67.4536 855.022 66.7008C854.585 65.9479 854.133 65.2037 853.667 64.468C853.201 63.7325 852.721 63.0061 852.227 62.2888C851.733 61.5716 851.226 60.8641 850.705 60.1663C850.184 59.4684 849.65 58.7807 849.103 58.1033C848.555 57.4258 847.995 56.7591 847.423 56.103C846.85 55.447 846.265 54.8021 845.668 54.1685C845.07 53.5347 844.461 52.9127 843.84 52.3023C819.79 28.3829 775.997 28.7778 743.944 29.0668L743.571 29.0702C738.914 29.1121 734.258 29.2114 729.601 29.3108C723.364 29.4439 717.128 29.577 710.89 29.5721C707.606 29.5695 704.313 29.5048 701.019 29.4401ZM881.776 550.92C876.099 547.975 870.41 545.026 864.448 542.723C864.227 550.924 864.264 559.134 864.302 567.343C864.327 572.924 864.353 578.504 864.297 584.081C864.229 590.822 864.143 597.561 864.056 604.299C863.798 624.388 863.539 644.471 863.781 664.575C877.109 660.928 892.039 661.94 904.152 668.921C906.103 670.045 908.07 671.221 909.914 672.516C910.865 671.641 911.822 670.768 912.782 669.893C918.519 664.659 924.326 659.36 929.261 653.392C939.647 641.699 950.772 626.295 950.107 609.771C949.657 598.556 941.84 588.443 933.731 581.311C921.894 570.901 908.003 564.025 894.043 557.114C891.858 556.033 889.672 554.95 887.492 553.854C885.581 552.893 883.68 551.906 881.776 550.92Z" fill="#2889E3"/>
<path d="M654.157 45.0598C657.006 44.9519 659.857 44.877 662.709 44.8351C680.807 44.5417 699.002 44.8197 717.109 44.8848C732.854 44.9413 749.57 43.7188 765.034 47.1019C775.472 49.3855 785.771 53.653 793.478 61.2433C800.472 68.1322 804.844 77.8743 805.991 87.577C807.045 96.4841 806.733 105.589 806.727 114.544L806.686 153.432L806.696 282.997L806.745 712.168C802.739 715.22 798.839 718.401 795.043 721.711C771.564 742.588 754.629 770.481 752.782 802.385C751.521 824.183 756.531 846.596 771.079 863.485C775.293 868.378 780.413 872.37 784.93 876.966C792.464 884.631 799.982 892.96 807.128 901.013C807.584 903.808 807.803 906.469 807.869 909.305C808.256 926.027 807.15 946.727 794.839 959.438C779.828 974.938 760.807 978.225 740.13 978.369C673.421 978.333 606.721 977.519 540.03 975.928L496.25 974.803C476.911 974.492 453.156 974.838 434.436 970.455C426.475 968.591 418.792 963.077 413.092 957.377C404.26 948.543 399.936 939.499 397.846 927.236C395.024 910.674 396.555 892.527 396.876 875.784C397.133 862.354 396.96 848.896 396.962 835.463L396.84 624.151L395.46 469.784C415.296 466.047 434.753 462.044 454.112 456.241C469.344 451.676 484.195 445.559 499.738 442.111C506.229 440.673 530.433 440.031 532.911 438.066C534.312 436.955 534.874 435.908 535.065 434.141C535.093 433.892 535.109 433.642 535.112 433.391C535.116 433.14 535.107 432.89 535.086 432.64C535.064 432.39 535.03 432.141 534.985 431.895C534.939 431.648 534.881 431.404 534.811 431.163C534.741 430.922 534.66 430.685 534.566 430.453C534.473 430.219 534.369 429.991 534.253 429.769C534.137 429.546 534.01 429.33 533.874 429.12C533.736 428.91 533.589 428.707 533.432 428.511C530.879 425.379 526.098 424.19 522.294 423.608C496.857 419.714 466.005 433.641 442.237 441.737C432.986 444.888 423.558 447.852 414.056 450.162C395.366 454.705 374.709 457.252 355.47 455.245C331.715 452.766 309.431 442.195 294.376 423.344C284.126 410.51 277.866 393.438 279.862 376.884C282.166 357.78 291.446 344.115 306.48 332.464C329.417 314.69 356.338 312.778 384.007 317.553C391.28 318.807 398.598 320.068 405.635 322.34C423.829 328.219 441.753 336.8 460.867 339.209C478.47 341.427 498.005 338.763 512.274 327.519C526.374 316.407 531.09 298.092 533.151 281.039C535.471 261.849 531.099 236.383 518.828 220.954C512.21 212.634 502.781 206.729 492.06 205.76C480.396 204.707 469.067 209.754 460.328 217.19C430.96 242.178 432.513 281.049 429.838 315.849C418.964 311.313 407.422 307.44 396.346 303.295C396.287 299.838 395.994 296.364 395.861 292.906C395.177 275.105 395.96 257.389 396.258 239.6C396.597 219.513 396.347 199.379 396.362 179.285C396.371 164.974 396.49 150.652 396.297 136.344C396.118 123.189 395.25 109.346 397.15 96.2993C398.636 86.089 402.615 72.8775 409.916 65.3157C416.369 58.6328 425.489 54.7803 434.461 52.9434C451.951 49.3621 470.561 49.8022 488.325 49.5098L536.133 48.3657C575.482 47.5874 614.789 45.6476 654.157 45.0598Z" fill="#FEFEFE"/>
<path d="M627.152 391.213C637.305 389.987 648.33 391.361 657.712 395.479C670.718 401.187 682.128 411.433 687.26 424.899C688.506 428.168 689.227 431.307 687.737 434.579C686.58 435.585 686.052 436.17 684.415 436.227C676.016 436.517 671.121 426.304 666.597 420.961C664.541 431.854 663.874 443.106 662.101 454.074C656.808 486.854 640.541 535.045 613.005 554.665C598.63 564.908 580.505 570.257 562.914 567.193C550.893 565.098 541.291 558.434 534.274 548.59C525.577 536.207 516.665 505.539 512.741 490.185C502.816 486.148 488.897 481.819 483.572 471.616C482.404 469.378 482.062 467.593 482.811 465.185C483.733 464.057 484.425 463.433 485.89 463.097C492.372 461.608 499.711 467.558 504.793 470.985L508.196 466.223C518.888 466.501 529.823 465.713 540.454 464.594C587.812 459.615 618.253 441.168 653.183 410.333C644.999 406.935 622.217 402.461 618.098 395.595C618.156 394.561 617.956 394.239 618.727 393.434C620.907 391.162 624.23 391.385 627.152 391.213Z" fill="#2889E3"/>
<path d="M617.552 499.062C620.396 498.737 623.817 498.702 626.637 499.249C628.847 499.678 630.054 500.262 631.278 502.164C631.34 503.128 631.348 504.093 631.304 505.058C631.258 506.024 631.16 506.984 631.008 507.938C630.857 508.893 630.654 509.836 630.398 510.768C630.142 511.699 629.835 512.614 629.478 513.512L628.232 513.172C627.898 513.279 627.497 513.267 627.23 513.495C626.419 514.183 619.61 528.319 617.963 530.913C614.436 536.463 610.107 541.292 604.779 545.165C593.474 553.385 580.034 556.743 566.28 554.471C559.331 552.866 554.197 548.999 549.982 543.402C550.276 542.973 550.569 542.541 550.876 542.12C562.69 525.922 586.315 508.527 605.045 501.868C609.108 500.423 613.309 499.749 617.552 499.062Z" fill="#FEFEFE"/>
<path d="M582.55 619.707C587.313 619.124 592.518 619.821 597.167 620.917C610.629 624.088 621.209 631.9 628.351 643.741C628.766 644.442 629.164 645.154 629.544 645.874C629.924 646.595 630.286 647.325 630.629 648.063C630.974 648.801 631.3 649.548 631.607 650.302C631.915 651.056 632.205 651.818 632.475 652.587C632.745 653.356 632.997 654.13 633.229 654.911C633.461 655.692 633.675 656.478 633.868 657.27C634.062 658.061 634.236 658.857 634.391 659.657C634.546 660.457 634.681 661.26 634.796 662.066C634.912 662.873 635.007 663.683 635.082 664.494C635.158 665.305 635.214 666.117 635.25 666.931C635.286 667.745 635.303 668.56 635.299 669.374C635.295 670.189 635.27 671.003 635.226 671.817C635.182 672.631 635.119 673.442 635.036 674.253C634.952 675.063 634.848 675.871 634.725 676.677C634.602 677.482 634.459 678.284 634.295 679.083C634.133 679.881 633.951 680.675 633.749 681.464C630.225 694.906 621.776 703.037 610.101 709.886C609.028 720.989 611.954 733.135 613.5 744.167C616.047 762.68 618.761 781.168 621.642 799.632C622.813 806.978 626.125 818.326 624.643 825.561C623.741 829.968 620.824 832.011 617.188 834.232C608.128 834.714 598.909 834.376 589.83 834.376C579.176 834.328 567.785 835.453 557.235 834.266C553.152 833.807 550.162 832.541 547.656 829.165C546.228 827.242 545.399 825.012 545.327 822.611C545.028 812.725 548.676 797.624 550.301 787.374L562.881 709.199C561.451 708.272 560.054 707.3 558.688 706.28C547.945 698.406 540.69 687.576 538.729 674.264C536.818 661.302 540.659 648.255 548.471 637.848C556.752 626.814 569.211 621.544 582.55 619.707Z" fill="#2889E3"/>
<path d="M641.893 205.757C650.089 204.529 659.38 206.109 666.746 209.884C679.04 216.184 687.085 229.085 691.113 241.933C699.814 269.687 695.819 301.827 682.248 327.293C671.934 346.647 657.732 357.424 636.934 363.677C635.075 364.111 633.198 364.548 631.302 364.796C622.079 366.008 612.156 362.936 604.874 357.235C592.513 347.556 586.481 330.623 584.621 315.533C583.663 307.763 583.921 299.83 584.007 292.018C584.286 266.873 587.082 246.751 603.396 226.305C613.591 213.527 625.891 207.506 641.893 205.757Z" fill="#2889E3"/>
<path d="M638.292 220.168C642.619 219.984 646.964 219.666 651.249 220.475C659.577 222.047 666.243 227.243 670.833 234.226C682.901 252.582 682.185 278.83 677.928 299.441C674.644 287.537 673.729 268.265 662.904 260.663C658.362 257.474 653.157 256.918 647.786 257.912C641.858 259.009 637.146 262.551 633.911 267.575C625.668 280.377 625.466 302.584 628.863 316.979C629.681 319.948 630.625 322.74 631.952 325.521C635.915 333.827 641.602 338.687 650.157 341.728C645.623 345.191 640.758 348.101 635.174 349.517C629.028 351.075 622.509 350.757 617.025 347.364C607.407 341.412 602.7 329.185 600.515 318.593C595.35 293.565 597 261.571 611.363 239.762C617.716 230.116 626.8 222.536 638.292 220.168Z" fill="#FEFEFE"/>
<path d="M647.951 115.754C652.687 115.154 657.709 115.503 662.395 116.35C680.813 119.68 696.651 131.201 707.195 146.461C711.384 152.525 716.643 163.84 714.697 171.304C714.304 172.806 713.732 173.262 712.462 174.044C708.029 174.025 699.269 165.56 695.326 162.673C686.367 156.87 677.105 152.819 666.459 151.325C654.616 149.664 630.325 154.353 621.477 148.285C618.627 146.332 616.406 142.406 615.903 139.016C615.363 135.369 616.761 131.97 618.993 129.129C625.558 120.779 637.748 116.784 647.951 115.754Z" fill="#2889E3"/>
<path d="M481.981 119.352C482.653 119.294 483.326 119.229 484 119.193C494.707 118.611 507.428 119.414 515.631 127.243C519.03 130.487 521.29 134.806 521.351 139.561C521.423 145.234 518.609 151.14 514.755 155.166C491.854 155.251 480.561 150.719 459.122 162.82C452.517 167.064 446.782 172.872 440.076 176.794C438.275 177.846 437.081 178.162 434.998 177.623C433.444 176.368 432.918 175.141 432.678 173.209C431.271 161.862 439.525 146.548 446.445 138.074C455.708 126.731 467.471 120.758 481.981 119.352Z" fill="#2889E3"/>
<path d="M54.5231 293.238C58.1086 292.953 61.5884 293.086 64.9074 294.589C73.4438 298.459 82.1638 311.056 84.0657 320.213C85.6496 327.842 84.8756 334.755 87.7939 342.311C93.9256 358.191 106.635 365.037 121.357 371.636C120.478 374.039 119.578 376.433 118.658 378.82C116.241 385.046 113.031 390.609 106.568 393.275C102.07 395.131 96.7202 395.384 91.8953 395.194C57.1498 393.82 42.5765 349.703 33.1594 347.717C32.0519 347.483 32.1107 347.684 31.3259 348.287C29.568 352.394 32.2918 359.372 33.8218 363.374C40.8414 381.74 53.4204 397.226 71.6895 405.216C85.4876 411.251 100.201 411.234 114.103 405.693C114.219 408.189 114.455 410.612 114.886 413.07C115.844 418.537 118.012 426.745 122.915 429.871C124.429 430.837 125.866 431.278 127.629 430.814C128.461 429.783 128.793 429.551 128.743 428.16C128.655 425.685 127.614 423.024 127.139 420.578C126.05 414.972 127.153 408.917 128.101 403.374C127.064 401.668 125.905 400.017 124.807 398.349C130.139 389.391 133.262 381.518 134.448 371.105C139.301 371.184 144.179 371.316 149.03 371.16C156.189 370.931 172.558 369.302 177.765 363.716C178.235 362.262 178.139 361.437 177.865 359.945C176.969 358.88 176.696 358.436 175.274 358.101C172.187 357.374 168.276 357.647 165.093 357.539C151.957 357.091 135.646 358.628 123.053 355.298C114.644 353.075 106.64 348.385 102.304 340.593C98.9641 334.592 97.6802 325.016 99.6373 318.292C101.249 312.757 105.423 308.822 110.448 306.248C129.101 296.688 182.388 300.19 202.778 307.317C216.472 312.104 225.111 319.806 231.381 332.876C234.963 343.059 236.35 352.242 235.291 363.051C231.764 399.023 209.477 433.285 177.384 450.127C172.46 452.712 157.796 457.022 154.827 460.235C153.779 461.37 153.915 461.82 153.951 463.259C154.76 464.597 155.066 465.438 156.687 465.929C158.851 466.584 162.285 466.291 164.544 466.156C179.754 465.237 192.711 457.833 204.696 448.947C205.764 452.934 206.361 456.929 206.335 461.057C206.263 472.177 200.874 482.325 193.069 490.019C176.828 506.03 151.226 511.908 129.135 511.607C114.82 511.413 99.4525 508.275 89.2794 497.367C82.8717 490.496 80.6758 483.132 80.857 473.973C98.009 477.789 122.961 482.082 138.748 471.727C140.608 470.507 141.786 469.409 142.239 467.202C140.582 464.956 137.599 464.448 134.946 464.179C130.362 463.717 125.562 464.508 120.959 464.697C113.655 464.997 106.221 464.761 98.9917 463.629C89.019 462.067 80.1191 458.634 71.5191 453.369C40.383 434.304 27.6601 403.616 19.3949 369.493C15.2335 352.315 10.5669 330.936 20.5612 314.841C28.26 302.443 40.7118 296.35 54.5231 293.238Z" fill="#FEFEFE"/>
<path d="M835.647 712.025C836.571 712.456 836.249 712.1 836.546 713.102C842.154 732.085 854.314 750.108 870.746 761.258C885.209 771.071 905.14 778.671 922.806 775.371C923.327 776.681 923.789 778.011 924.192 779.362C924.593 780.714 924.934 782.081 925.213 783.463C925.491 784.845 925.707 786.237 925.861 787.638C926.014 789.04 926.104 790.446 926.131 791.855C926.614 812.433 915.274 839.974 901.128 854.763C897.099 858.975 891.583 861.658 887.533 865.911C887.015 867.545 886.643 868.375 887.152 870.083C887.915 870.737 888.208 871.158 889.218 871.387C895.825 872.882 904.432 868.303 909.742 864.916C914.654 868.076 921.005 871.357 927.029 870.373C928.675 870.104 929.14 869.642 930.074 868.327C930.026 863.165 923.742 858.225 921.361 853.567L920.979 852.807C925.515 844.582 929.319 835.852 934.137 827.817C936.646 828.655 939.242 829.456 941.6 830.666C946.021 832.934 949.521 836.712 951.026 841.486C953.98 850.861 949.599 862.295 945.072 870.508C934.895 888.972 917.809 901.706 897.773 907.569C895.544 908.094 893.291 908.482 891.016 908.735C863.62 911.573 839.934 894.903 829.464 870.077C827.776 866.079 825.736 854.809 822.818 852.484C821.131 852.075 820.799 852.117 819.12 852.588C818.42 853.207 818.116 853.659 817.856 854.565C813.906 868.328 820.204 881.93 826.317 893.927C824.745 893.389 823.112 892.895 821.605 892.186C804.89 884.33 794.034 862.569 792.835 844.852C792.389 838.244 794.063 827.463 791.425 821.614C790.711 820.032 790.119 819.583 788.568 818.911C787.089 819.212 786.256 819.692 785.223 820.762C778.915 827.289 779.935 843.74 779.77 852.303C777.723 848.612 775.778 844.904 774.109 841.025C764.791 819.36 765.792 795.092 774.572 773.417C785.26 747.032 809.639 723.17 835.647 712.025Z" fill="#FEFEFE"/>
<path d="M805.879 49.5234C815.458 51.0864 825.101 56.1142 832.392 62.4443C841.383 70.252 845.807 80.4639 847.83 92.0517C850.215 105.715 849.362 120.266 849.334 134.119C849.248 149.7 849.327 165.28 849.571 180.858L849.863 376.537C849.899 393.088 849.818 409.639 849.618 426.188C849.437 440.433 848.946 454.827 849.895 469.047L843.468 468.327C838.913 468.273 834.352 468.328 829.796 468.336C826.573 471.085 824.081 474.259 821.538 477.618C822.144 438.552 821.34 399.515 821.191 360.462L821.207 207.09C821.147 183.144 820.839 159.134 821.217 135.196C821.47 119.136 823.17 102.45 821.129 86.4768C819.33 72.3871 813.489 61.2987 805.879 49.5234Z" fill="#FEFEFE"/>
<path d="M41.564 126.488C46.065 126.296 50.8864 126.389 55.1414 128.017C60.3455 130.01 64.4553 134.477 68.0959 138.549C94.1094 167.64 102.729 214.901 114.295 251.326C118.053 263.16 122.778 275.154 127.632 286.582C119.753 288.008 112.639 289.651 105.186 292.707C100.222 294.834 96.2333 297.882 92.0215 301.193C86.9242 294.983 80.9125 289.194 76.6575 282.363C72.4985 275.685 69.2359 268.152 65.8028 261.063C56.1961 240.982 47.3773 220.561 39.3465 199.801C34.9968 188.601 30.3542 177.295 27.6675 165.559C25.5556 156.334 23.2577 142.837 28.8027 134.455C31.9189 129.744 36.2195 127.703 41.564 126.488Z" fill="#FEFEFE"/>
<path d="M190.551 119.952C191.188 119.876 191.827 119.812 192.467 119.758C196.574 119.427 199.987 120.84 203.019 123.638C218.294 137.73 209.249 176.91 205.867 195.133C203.704 206.783 201.326 218.446 199.496 230.152C196.516 249.222 193.822 269.607 194.334 288.926C185.826 287.974 177.066 287.984 168.502 287.347C160.78 286.64 153.085 286.262 145.338 285.974C145.265 267.307 147.064 249.178 148.604 230.605C150.938 202.449 152.52 152.349 170.85 130.392C176.099 124.105 182.464 120.69 190.551 119.952Z" fill="#FEFEFE"/>
<path d="M821.722 521.289C831.036 526.234 840.175 531.797 849.677 536.344C848.501 567.49 849.882 598.761 849.924 629.916C849.939 639.898 850.656 658.542 848.979 667.639C847.521 675.549 841.551 682.059 839.546 690.633C835.314 695.072 827.125 698.473 821.721 701.503L821.722 521.289Z" fill="#FEFEFE"/>
<path d="M485.491 220.14C488.362 219.993 491.636 219.702 494.425 220.482C502.217 222.661 507.537 228.347 511.492 235.133C522.88 254.669 521.126 280.65 515.449 301.654C515.203 291.169 514.817 280.701 510.096 271.108C507.551 265.935 503.733 260.621 497.962 258.887C493.94 257.678 489.715 258.416 486.106 260.466C478.101 265.01 475.142 273.605 472.696 281.876C468.895 295.377 472.776 310.322 478.279 322.739C466.381 323.29 455.468 322.505 445.345 315.619C442.615 292.561 444.833 265.827 455.958 244.965C462.647 232.423 471.909 224.343 485.491 220.14Z" fill="#FEFEFE"/>
<path d="M871.553 677.226C881.825 676.687 888.659 678.035 898.154 682.189L893.391 685.817C888.102 689.883 883.331 693.191 882.618 700.347C881.915 707.396 885.117 714.351 889.582 719.631C896.44 727.74 907.99 733.841 918.626 734.546C928.73 735.216 935.713 728.129 942.813 722.079C943.809 724.126 944.629 726.241 945.273 728.424C947.517 736.286 946.32 742.862 942.484 749.908C938.354 755.401 932.777 759.13 926.121 760.905C912.036 764.661 896.73 759.519 884.565 752.449C870.652 744.362 858.061 730.894 854.026 714.962C851.826 706.277 851.337 694.754 856.269 686.941C859.752 681.419 865.333 678.58 871.553 677.226Z" fill="#FEFEFE"/>
<path d="M847.692 482.014C848.08 482.24 848.649 482.566 848.988 482.808C856.481 488.169 872.229 493.671 881.42 497.865C920.928 515.887 986.178 546.516 1001.97 589.641C1007.69 605.252 1006.26 621.786 999.287 636.732C997.531 640.432 995.58 644.028 993.434 647.518C991.289 651.007 988.961 654.371 986.452 657.609C975.052 672.503 943.741 705.687 927.04 711.854C925.76 710.978 925.04 710.191 924.134 708.934C924.211 706.539 926.011 704.838 927.667 703.164C932.742 698.034 938.771 693.651 944.199 688.879C958.415 676.384 971.998 663.184 982.975 647.674C992.516 634.193 1000.3 617.132 997.319 600.246C989.315 554.952 916.77 524.582 878.53 507.955C867.227 503.04 853.713 499.227 843.637 492.147C843.422 491.996 843.212 491.841 843.001 491.688C842.551 489.585 841.954 487.595 842.342 485.438C843.481 483.51 845.723 482.864 847.692 482.014Z" fill="#FEFEFE"/>
<path d="M174.003 518.121C175.651 518.674 179.568 528.66 180.594 530.746C185.005 539.718 190.115 548.198 196.774 555.696C217.747 579.308 245.198 589.16 276.345 587.682C282.699 587.38 289.02 587.018 295.261 585.703C307.554 583.112 319.22 578.465 330.616 573.272C337.325 570.214 348.584 563.115 354.174 561.151C355.591 560.654 357.06 560.715 358.532 560.808C359.526 561.923 359.422 562.055 359.722 563.431C358.522 567.484 354.935 569.428 351.681 571.785C346.455 575.778 341.268 579.551 335.381 582.53C305.243 597.785 267.97 603.149 235.486 592.449C214.998 585.699 194.766 570.998 182.202 553.414C175.197 543.609 169.766 532.402 164.35 521.668C167.593 520.603 170.799 519.308 174.003 518.121Z" fill="#FEFEFE"/>
<path d="M822.997 907.674C831.991 909.809 841.11 908.877 848.671 914.889C848.777 920.736 848.612 926.585 847.542 932.352C844.714 947.577 836.483 958.494 823.896 967.134C817.104 970.744 810.417 972.996 802.92 974.651C815.325 958.883 821.633 948.885 822.131 928.193C822.288 921.676 821.815 914.789 822.874 908.357C822.911 908.129 822.955 907.902 822.997 907.674Z" fill="#FEFEFE"/>
</svg>
